<svg xmlns="http://www.w3.org/2000/svg" id="layer" x="0" y="0" version="1.1" xml:space="preserve" viewBox="0 0 599.901 330.7"><defs/><path id="path4" fill="#ab1f24" d="M52 289.7H40.8v40.8H52c13 0 21.4-8 21.4-20.4 0-12.4-8.4-20.4-21.4-20.4m-3.5 7.4h3.2c8.9 0 13.8 4.6 13.8 13s-4.9 13-13.8 13h-3.2z" class="st0"/><path id="rect6" fill="#ab1f24" d="M81.9 289.7h7.8v40.8h-7.8z" class="st0"/><path id="polygon8" fill="#ab1f24" d="M129.2 486.8h7.7v-33.4h11.3V446h-30.4v7.4h11.4z" class="st0" transform="translate(-20.8 -156.3)"/><path id="polygon10" fill="#ab1f24" d="M159.4 446h-8.8l14.4 24.6v16.2h7.7v-16.2l14.2-24.6h-8.6l-9.4 16.3z" class="st0" transform="translate(-20.8 -156.3)"/><path id="path12" fill="#ab1f24" d="M247.3 308.9c1.9-1.9 2.9-4.5 2.9-7.7 0-7-4.9-11.5-12.6-11.5h-14.4v40.8h15.2c8.3 0 13.6-4.8 13.6-12.2 0-4.1-1.6-7.4-4.7-9.4m-10-11.9c3.5 0 5.2 1.4 5.2 4.4 0 3-1.4 4.4-4.6 4.4h-7V297zm-6.3 16h7c4.1 0 6.3 1.7 6.3 5.1 0 3.4-2 5.1-6.2 5.1H231z" class="st0"/><path id="rect14" fill="#ab1f24" d="M260.4 289.7h7.8v40.8h-7.8z" class="st0"/><path id="path16" fill="#ab1f24" d="M306.3 302.7c0-7.8-5.7-13-14.3-13h-13v40.8h7.7v-14.9h4.9l9.2 14.9h8.9L299.4 314c4.4-2.1 6.9-6.1 6.9-11.3m-19.7-5.6h5.1c4.5 0 6.7 1.9 6.7 5.7 0 2.4-.7 5.5-6.7 5.5h-5.1z" class="st0"/><path id="polygon18" fill="#ab1f24" d="M336.2 486.8h24.7v-7.3H344V446h-7.8z" class="st0" transform="translate(-20.8 -156.3)"/><path id="path20" fill="#ab1f24" d="M421.5 315.6h11v5.2c-2.3 1.7-5.3 2.5-9 2.5-7.7 0-13.3-5.6-13.3-13.4 0-7.8 5.3-13.4 12.7-13.4 5.4 0 8 2.1 9.8 4.1l1.4 1.6 5.5-5.2-1.4-1.5c-3.9-4.3-8.9-6.4-15.3-6.4-11.6 0-20.7 9.1-20.7 20.8 0 11.9 9.1 20.8 21.2 20.8 6.5 0 11.5-1.8 15.9-5.6l.7-.6v-16.2h-18.6v7.3" class="st0"/><path id="path22" fill="#ab1f24" d="M476.3 302.5c0-7.8-5.7-13-14.3-13h-13v40.8h7.7v-14.9h4.9l9.2 14.9h8.9l-10.3-16.5c4.4-2.1 6.9-6.2 6.9-11.3m-19.6-5.7h5.1c4.5 0 6.6 1.9 6.6 5.7 0 2.4-.7 5.5-6.6 5.5h-5.1z" class="st0"/><path id="path24" fill="#ab1f24" d="M503.9 289.1c-11.7 0-20.8 9.1-20.8 20.8 0 11.7 9.1 20.8 20.8 20.8 11.7 0 20.9-9.1 20.9-20.8 0-11.7-9.2-20.8-20.9-20.8m0 34.2c-7.5 0-13-5.6-13-13.4 0-7.8 5.5-13.4 13-13.4s13 5.6 13 13.4c0 7.8-5.5 13.4-13 13.4" class="st0"/><path id="path26" fill="#ab1f24" d="M554.9 315.5c0 5.2-2.5 7.8-7.3 7.8s-7.3-2.7-7.3-7.8v-26h-7.7v26.2c0 9.1 5.9 14.9 15 14.9s15-5.9 15-14.9v-26.2h-7.7v26" class="st0"/><path id="path28" fill="#ab1f24" d="M585.7 289.5h-12.9v40.8h7.7v-14.6h5.1c8.7 0 14.3-5.1 14.3-13.1.1-7.9-5.5-13.1-14.2-13.1m-5.1 7.3h4.9c4.5 0 6.6 1.9 6.6 5.8s-2.2 5.7-6.6 5.7h-4.9z" class="st0"/><path id="path30" fill="#ab1f24" d="M0 330.4h7.6L11 322h12.8l3.4 8.4h7.7l-17.4-42.2zm13.8-15.3l3.6-8.9 3.6 8.9z" class="st0"/><path id="path32" fill="#ab1f24" d="M163.3 330.5h7.6l3.3-8.4H187l3.4 8.4h7.7l-17.4-42.2zm13.7-15.2l3.6-8.9 3.6 8.9z" class="st0"/><path id="path34" fill="#ab1f24" d="M345 330.4h7.6l3.4-8.4h12.8l3.4 8.4h7.7l-17.4-42.2zm13.7-15.3l3.6-8.9 3.6 8.9z" class="st0"/><path id="polygon36" fill="#ab1f24" d="M411 268.6l68.9-112.3h49v163.3l-56.2 25.9z" class="st0" transform="translate(-20.8 -156.3)"/><path id="polygon38" fill="#ef7032" d="M472.7 345.5l56.2 70v-95.9z" class="st1" transform="translate(-20.8 -156.3)"/><path id="polygon40" fill="#ef7032" d="M479.9 156.3L411 268.6l-90.2-112.3z" class="st1" transform="translate(-20.8 -156.3)"/><path id="path42" fill="#ffd35d" d="M365.4 152.7l24.7-40.3L300 .1v134.5h.6c23.8-.1 46 6.6 64.8 18.1" class="st2"/><path id="path44" fill="#ab1f24" d="M300.6 134.5h-.6v124.7l65.4-106.5c-18.9-11.5-41-18.2-64.8-18.2" class="st0"/><path id="path46" fill="#ef7032" d="M413.8 206.8l38.1-17.6-61.7-76.9-24.8 40.4c21 12.8 37.9 31.6 48.4 54.1" class="st1"/><path id="path48" fill="#d31f26" d="M365.4 152.7L300 259.3l113.8-52.5a125.57 125.57 0 00-48.4-54.1" class="st3"/><path id="path50" fill="#ffd35d" d="M451.9 189.2l-38.1 17.6c7.4 15.9 11.6 33.7 11.6 52.5h82.7l-56.2-70.1" class="st2"/><path id="path52" fill="#ab1f24" d="M300 259.2h125.3c0-18.7-4.1-36.5-11.5-52.5L300 259.2" class="st0"/><path id="polygon54" fill="#ab1f24" d="M230.7 268.6l-68.9-112.3h-49v163.3l56.2 25.9z" class="st0" transform="translate(-20.8 -156.3)"/><path id="polygon56" fill="#ef7032" d="M169 345.5l-56.2 70v-95.9z" class="st1" transform="translate(-20.8 -156.3)"/><path id="polygon58" fill="#ef7032" d="M161.8 156.3l68.9 112.3 90.1-112.3z" class="st1" transform="translate(-20.8 -156.3)"/><path id="path60" fill="#d31f26" d="M234.6 152.7l-24.7-40.3L300 .1v134.5h-.6c-23.7-.1-45.9 6.6-64.8 18.1" class="st3"/><path id="path62" fill="#ef7032" d="M299.4 134.5h.6v124.7l-65.3-106.5c18.8-11.5 41-18.2 64.7-18.2" class="st1"/><path id="path64" fill="#ef7032" d="M186.3 206.8l-38.1-17.6 61.7-76.9 24.7 40.3c-21 12.9-37.9 31.7-48.3 54.2" class="st1"/><path id="path66" fill="#d31f26" d="M234.6 152.7L300 259.3l-113.7-52.5c10.4-22.5 27.3-41.3 48.3-54.1" class="st3"/><path id="path68" fill="#ffd35d" d="M148.2 189.2l38.1 17.6c-7.4 15.9-11.6 33.7-11.6 52.5H92l56.2-70.1" class="st2"/><path id="path70" fill="#ab1f24" d="M300 259.2H174.7c0-18.7 4.1-36.5 11.6-52.5L300 259.2" class="st0"/></svg>