<svg width="152" height="151" viewBox="0 0 152 151" fill="none" xmlns="http://www.w3.org/2000/svg">
<path d="M55.3326 31.9362L52.4756 30.3191C52.6315 28.9915 52.6315 27.6501 52.4756 26.3225L55.3326 24.7054C55.4017 24.6663 55.4567 24.6063 55.4897 24.5341C55.5227 24.4618 55.5321 24.381 55.5164 24.3031C55.2041 22.7486 54.7125 21.2356 54.0514 19.7944C54.0182 19.7223 53.9632 19.6625 53.8941 19.6236C53.825 19.5846 53.7453 19.5685 53.6665 19.5775L50.4043 19.9481C49.7502 18.7821 48.9618 17.6968 48.055 16.7145L49.4108 13.7265C49.4435 13.6544 49.4527 13.5738 49.437 13.4962C49.4213 13.4186 49.3816 13.3479 49.3234 13.2941C48.158 12.2192 46.871 11.2839 45.4888 10.5072C45.4196 10.4683 45.3399 10.4522 45.2611 10.4613C45.1822 10.4703 45.1082 10.5041 45.0497 10.5577L42.6288 12.7744C41.4143 12.2156 40.1384 11.801 38.8274 11.5391L38.1713 8.32291C38.1559 8.24473 38.1161 8.17344 38.0577 8.1193C37.9992 8.06516 37.9251 8.03096 37.8459 8.02163C36.271 7.83784 34.6801 7.83784 33.1052 8.02163C33.026 8.03096 32.9519 8.06516 32.8934 8.1193C32.835 8.17344 32.7952 8.24473 32.7798 8.32291L32.1237 11.5391C30.8127 11.801 29.5368 12.2156 28.3223 12.7744L25.9044 10.5539C25.8459 10.5003 25.7719 10.4666 25.693 10.4575C25.6142 10.4484 25.5345 10.4645 25.4653 10.5035C24.0832 11.2804 22.7963 12.2156 21.6307 13.2904C21.5725 13.3441 21.5328 13.4148 21.5171 13.4924C21.5014 13.57 21.5106 13.6506 21.5433 13.7227L22.8991 16.7107C21.9945 17.6933 21.2083 18.7785 20.5566 19.9443L17.2944 19.5737C17.2156 19.5647 17.1359 19.5808 17.0668 19.6198C16.9977 19.6588 16.9426 19.7185 16.9095 19.7906C16.2479 21.2316 15.7563 22.7447 15.4445 24.2994C15.429 24.3771 15.4384 24.4578 15.4714 24.5299C15.5044 24.602 15.5593 24.6618 15.6283 24.7008L18.4852 26.3195C18.3293 27.6471 18.3293 28.9884 18.4852 30.3161L15.626 31.9362C15.5568 31.9754 15.5017 32.0355 15.4686 32.1079C15.4356 32.1803 15.4264 32.2612 15.4423 32.3392C15.7537 33.8937 16.2454 35.4066 16.9073 36.8472C16.9398 36.9197 16.9948 36.9799 17.064 37.019C17.1333 37.058 17.2132 37.0738 17.2922 37.0641L20.5543 36.6936C21.2081 37.8599 21.9966 38.9454 22.9036 39.9279L21.5478 42.9159C21.5151 42.988 21.5059 43.0686 21.5216 43.1462C21.5373 43.2238 21.577 43.2945 21.6352 43.3482C22.8009 44.4228 24.0878 45.3581 25.4698 46.1351C25.5389 46.1742 25.6186 46.1904 25.6974 46.1814C25.7763 46.1725 25.8503 46.1389 25.9089 46.0854L28.3298 43.8672C29.5443 44.4262 30.8201 44.8408 32.1313 45.1025L32.7873 48.3195C32.8027 48.3977 32.8426 48.4691 32.9013 48.5233C32.9599 48.5774 33.0342 48.6116 33.1135 48.6207C34.6879 48.8042 36.2783 48.8042 37.8527 48.6207C37.932 48.6116 38.0063 48.5774 38.0649 48.5233C38.1235 48.4691 38.1634 48.3977 38.1788 48.3195L38.8349 45.1025C40.146 44.841 41.4219 44.4264 42.6364 43.8672L45.0572 46.0854C45.1158 46.1389 45.1899 46.1725 45.2687 46.1814C45.3476 46.1904 45.4272 46.1742 45.4963 46.1351C46.8784 45.3581 48.1652 44.4229 49.331 43.3482C49.3891 43.2945 49.4289 43.2238 49.4446 43.1462C49.4602 43.0686 49.4511 42.988 49.4183 42.9159L48.0625 39.9279C48.9693 38.9453 49.7578 37.8597 50.4118 36.6936L53.674 37.0641C53.7528 37.0731 53.8325 37.057 53.9016 37.018C53.9707 36.9791 54.0258 36.9193 54.0589 36.8472C54.7202 35.4064 55.2118 33.8936 55.5239 32.3392C55.5391 32.2604 55.5287 32.1788 55.4943 32.1064C55.4599 32.0339 55.4032 31.9743 55.3326 31.9362ZM40.5816 28.3208C40.5816 29.3299 40.2824 30.3164 39.7217 31.1555C39.1611 31.9946 38.3642 32.6485 37.4319 33.0347C36.4995 33.4209 35.4737 33.5219 34.4839 33.3251C33.4942 33.1282 32.585 32.6422 31.8715 31.9287C31.1579 31.2151 30.6719 30.306 30.4751 29.3162C30.2782 28.3265 30.3792 27.3006 30.7654 26.3682C31.1516 25.4359 31.8056 24.6391 32.6446 24.0784C33.4837 23.5178 34.4702 23.2185 35.4793 23.2185C36.8321 23.2199 38.1291 23.7579 39.0856 24.7145C40.0422 25.671 40.5802 26.968 40.5816 28.3208Z" fill="black"/>
<path fill-rule="evenodd" clip-rule="evenodd" d="M86.8336 8.34102C85.8945 8.23105 84.9458 8.23105 84.0067 8.34102L83.5774 10.4455C82.6963 10.6086 81.8405 10.8871 81.0323 11.274L79.4505 9.82335C78.6264 10.287 77.8588 10.8446 77.163 11.4849L78.0533 13.4433C77.4358 14.0926 76.907 14.8207 76.4806 15.6088L74.343 15.3655C73.9484 16.2249 73.6552 17.1273 73.4692 18.0545L75.338 19.109C75.2205 19.9972 75.2205 20.897 75.338 21.7852L73.4692 22.8442C73.6552 23.7714 73.9484 24.6738 74.343 25.5332L76.4776 25.2906C76.9038 26.0786 77.4326 26.8065 78.0503 27.4554L77.16 29.4138C77.8557 30.0544 78.6234 30.6122 79.4475 31.0761L81.0293 29.6254C81.8375 30.0123 82.6933 30.2909 83.5744 30.4539L84.0037 32.5584C84.9428 32.6684 85.8915 32.6684 86.8305 32.5584L87.2599 30.4539C88.141 30.2909 88.9967 30.0123 89.805 29.6254L91.3867 31.0761C92.2108 30.6124 92.9782 30.0545 93.6735 29.4138L92.784 27.4554C93.4016 26.8065 93.9305 26.0786 94.3567 25.2906L96.4913 25.5332C96.8859 24.6738 97.1791 23.7714 97.365 22.8442L95.5016 21.7852C95.6198 20.897 95.6198 19.9971 95.5016 19.109L97.371 18.0507C97.1851 17.1235 96.8919 16.2211 96.4973 15.3617L94.3627 15.6043C93.9363 14.8162 93.4075 14.088 92.79 13.4388L93.6795 11.4804C92.9842 10.8399 92.2168 10.2823 91.3928 9.81883L89.811 11.2695C89.0028 10.8826 88.147 10.604 87.2659 10.441L86.8336 8.34102ZM85.4198 17.1182C86.0783 17.1181 86.722 17.3132 87.2696 17.679C87.8172 18.0447 88.244 18.5646 88.4961 19.1729C88.7482 19.7812 88.8142 20.4506 88.6859 21.0965C88.5575 21.7424 88.2405 22.3356 87.7749 22.8013C87.3093 23.267 86.7161 23.5841 86.0703 23.7127C85.4245 23.8412 84.755 23.7753 84.1467 23.5233C83.5383 23.2714 83.0183 22.8447 82.6524 22.2972C82.2866 21.7497 82.0913 21.106 82.0913 20.4475C82.0915 19.5647 82.4422 18.7181 83.0664 18.0938C83.6905 17.4696 84.537 17.1186 85.4198 17.1182Z" fill="#8B5CF6"/>
<path d="M97.5567 22.521L95.9056 21.5848C95.9885 20.8311 95.9885 20.0706 95.9056 19.3169L97.5567 18.3821C97.6257 18.3431 97.6806 18.2832 97.7136 18.2111C97.7466 18.1391 97.756 18.0584 97.7405 17.9807C97.5478 17.0247 97.2445 16.0945 96.8366 15.2088C96.8046 15.136 96.7499 15.0754 96.6807 15.0362C96.6114 14.997 96.5314 14.9812 96.4525 14.9911L94.5694 15.2058C94.1923 14.5476 93.745 13.9322 93.2355 13.3702L94.0218 11.6431C94.0546 11.571 94.0637 11.4904 94.0481 11.4128C94.0324 11.3352 93.9926 11.2645 93.9345 11.2107C93.2177 10.55 92.4266 9.97498 91.5769 9.49718C91.5077 9.45824 91.428 9.44215 91.3491 9.45121C91.2703 9.46027 91.1963 9.49402 91.1378 9.54764L89.739 10.8281C89.0471 10.518 88.3239 10.2832 87.5818 10.1276L87.2052 8.26868C87.1898 8.1905 87.15 8.11921 87.0916 8.06507C87.0331 8.01093 86.959 7.97673 86.8798 7.96739C85.9116 7.85592 84.9338 7.85592 83.9656 7.96739C83.8864 7.97658 83.8121 8.01071 83.7534 8.06486C83.6948 8.11901 83.6549 8.19038 83.6395 8.26868L83.2629 10.1276C82.521 10.2831 81.798 10.5179 81.1064 10.8281L79.707 9.54764C79.6484 9.49402 79.5744 9.46027 79.4956 9.45121C79.4167 9.44215 79.337 9.45824 79.2678 9.49718C78.418 9.97473 77.6268 10.5498 76.9103 11.2107C76.852 11.2644 76.8121 11.335 76.7962 11.4127C76.7804 11.4903 76.7895 11.5709 76.8221 11.6431L77.6085 13.371C77.0995 13.9329 76.6525 14.5481 76.2753 15.2058L74.3923 14.9911C74.3132 14.9814 74.2332 14.9972 74.1639 15.0364C74.0946 15.0756 74.0397 15.1361 74.0074 15.2088C73.5995 16.0943 73.2961 17.0242 73.1035 17.9799C73.0878 18.0578 73.0971 18.1386 73.1301 18.2108C73.1632 18.2831 73.2182 18.343 73.2873 18.3821L74.9376 19.3176C74.8562 20.0711 74.8562 20.8313 74.9376 21.5848L73.282 22.521C73.213 22.5601 73.1581 22.6199 73.1251 22.692C73.0921 22.7641 73.0827 22.8448 73.0982 22.9225C73.2909 23.8782 73.5942 24.8081 74.0021 25.6936C74.0351 25.7658 74.0901 25.8258 74.1592 25.8649C74.2284 25.904 74.3081 25.9202 74.387 25.9113L76.27 25.6966C76.6472 26.3543 77.0942 26.9695 77.6032 27.5314L76.8169 29.2586C76.7842 29.3307 76.7752 29.4114 76.791 29.489C76.8068 29.5666 76.8467 29.6373 76.905 29.6909C77.621 30.3524 78.4123 30.9276 79.2626 31.4045C79.3317 31.4435 79.4113 31.4597 79.4902 31.4508C79.569 31.4419 79.6431 31.4083 79.7017 31.3548L81.1012 30.0743C81.7928 30.3845 82.5157 30.6193 83.2576 30.7748L83.6342 32.633C83.6496 32.7112 83.6894 32.7824 83.7479 32.8366C83.8063 32.8907 83.8805 32.9249 83.9596 32.9342C84.9282 33.0472 85.9067 33.0472 86.8753 32.9342C86.9543 32.9248 87.0283 32.8905 87.0866 32.8364C87.1449 32.7822 87.1846 32.711 87.1999 32.633L87.5766 30.7748C88.3189 30.6193 89.0424 30.3845 89.7345 30.0743L91.1332 31.3548C91.1919 31.4083 91.2659 31.4419 91.3447 31.4508C91.4236 31.4597 91.5033 31.4435 91.5724 31.4045C92.4223 30.927 93.2135 30.352 93.9299 29.6909C93.9881 29.6372 94.0279 29.5665 94.0435 29.4889C94.0592 29.4112 94.05 29.3307 94.0173 29.2586L93.2309 27.5314C93.7407 26.9699 94.188 26.3547 94.5649 25.6966L96.4479 25.9113C96.5267 25.92 96.6063 25.9037 96.6753 25.8646C96.7442 25.8255 96.7991 25.7657 96.8321 25.6936C97.24 24.8079 97.5433 23.8777 97.7359 22.9217C97.7517 22.8446 97.7429 22.7645 97.7107 22.6926C97.6786 22.6207 97.6247 22.5607 97.5567 22.521ZM96.2664 25.1309L94.406 24.92C94.3309 24.911 94.2548 24.9247 94.1876 24.9595C94.1204 24.9943 94.0653 25.0485 94.0294 25.1151C93.6187 25.8739 93.1091 26.5747 92.5139 27.1993C92.4621 27.2537 92.4277 27.3223 92.4152 27.3964C92.4027 27.4705 92.4127 27.5467 92.4438 27.615L93.2204 29.3196C92.6684 29.8047 92.0725 30.2377 91.4406 30.6128L90.0599 29.3482C90.0045 29.2976 89.9353 29.2647 89.8611 29.2537C89.7869 29.2427 89.7111 29.2541 89.6434 29.2864C88.8648 29.6582 88.0408 29.9261 87.1924 30.0833C87.1186 30.0968 87.0504 30.132 86.9967 30.1845C86.943 30.237 86.9063 30.3043 86.8911 30.3778L86.5145 32.2119C85.783 32.2812 85.0466 32.2812 84.3151 32.2119L83.9385 30.3778C83.9235 30.3042 83.8868 30.2367 83.8331 30.1841C83.7794 30.1314 83.7112 30.0961 83.6372 30.0826C82.7887 29.9264 81.9646 29.6587 81.1863 29.2864C81.1185 29.2539 81.0425 29.2424 80.9682 29.2534C80.8938 29.2644 80.8244 29.2974 80.769 29.3482L79.3883 30.6128C78.7562 30.2379 78.1603 29.805 77.6085 29.3196L78.3843 27.615C78.4154 27.5467 78.4254 27.4705 78.4129 27.3964C78.4004 27.3223 78.3661 27.2537 78.3143 27.1993C77.7198 26.5743 77.2104 25.8735 76.7995 25.1151C76.7644 25.0478 76.7094 24.993 76.6421 24.9581C76.5747 24.9232 76.4981 24.9099 76.4229 24.92L74.5632 25.1309C74.2725 24.4564 74.0455 23.7561 73.8853 23.0392L75.5145 22.1158C75.5799 22.0789 75.6327 22.0234 75.6663 21.9563C75.6998 21.8892 75.7125 21.8136 75.7029 21.7392C75.5891 20.884 75.5891 20.0176 75.7029 19.1624C75.7125 19.0881 75.6998 19.0125 75.6663 18.9454C75.6327 18.8783 75.5799 18.8227 75.5145 18.7858L73.8951 17.8586C74.0554 17.142 74.2824 16.442 74.573 15.7677L76.4327 15.9786C76.5079 15.9884 76.5843 15.975 76.6516 15.9401C76.7189 15.9052 76.774 15.8506 76.8093 15.7835C77.2202 15.0251 77.7295 14.3243 78.324 13.6994C78.3759 13.645 78.4102 13.5763 78.4227 13.5022C78.4352 13.4281 78.4252 13.352 78.3941 13.2836L77.6183 11.5783C78.17 11.0929 78.7658 10.6602 79.3981 10.2858L80.7788 11.5504C80.8342 11.6012 80.9036 11.6342 80.978 11.6452C81.0523 11.6562 81.1283 11.6447 81.1961 11.6122C81.9744 11.2399 82.7985 10.9722 83.647 10.8161C83.721 10.8025 83.7892 10.7672 83.8429 10.7146C83.8966 10.6619 83.9333 10.5945 83.9483 10.5208L84.3249 8.68596C85.0565 8.61817 85.7927 8.61817 86.5243 8.68596L86.9009 10.5208C86.9161 10.5943 86.9528 10.6616 87.0065 10.7141C87.0602 10.7666 87.1284 10.8018 87.2022 10.8153C88.0506 10.9725 88.8746 11.2405 89.6532 11.6122C89.7209 11.6446 89.7967 11.656 89.8709 11.645C89.9451 11.634 90.0143 11.6011 90.0697 11.5504L91.4503 10.2858C92.0822 10.6608 92.6781 11.0935 93.2302 11.5783L92.4536 13.2836C92.4225 13.352 92.4125 13.4281 92.425 13.5022C92.4375 13.5763 92.4719 13.645 92.5237 13.6994C93.1189 14.3239 93.6285 15.0248 94.0391 15.7835C94.0751 15.8501 94.1302 15.9043 94.1974 15.9391C94.2646 15.9739 94.3407 15.9877 94.4158 15.9786L96.2762 15.7677C96.5665 16.4422 96.7934 17.1422 96.9541 17.8586L95.3256 18.7813C95.2603 18.8182 95.2075 18.8738 95.1739 18.9409C95.1404 19.0079 95.1276 19.0835 95.1373 19.1579C95.2511 20.0126 95.2511 20.8785 95.1373 21.7332C95.1276 21.8076 95.1404 21.8832 95.1739 21.9503C95.2075 22.0174 95.2603 22.0729 95.3256 22.1098L96.9541 23.034C96.7904 23.7516 96.5602 24.4523 96.2664 25.1272V25.1309Z" fill="black"/>
<path d="M85.4196 16.7417C84.6866 16.7417 83.9701 16.9591 83.3606 17.3663C82.7512 17.7735 82.2762 18.3523 81.9958 19.0295C81.7153 19.7067 81.642 20.4519 81.785 21.1708C81.9281 21.8897 82.2811 22.55 82.7994 23.0682C83.3178 23.5864 83.9782 23.9393 84.6971 24.0822C85.416 24.2251 86.1611 24.1516 86.8382 23.871C87.5154 23.5904 88.0941 23.1153 88.5012 22.5058C88.9083 21.8963 89.1255 21.1797 89.1254 20.4468C89.1242 19.4644 88.7334 18.5225 88.0386 17.8279C87.3439 17.1333 86.402 16.7427 85.4196 16.7417ZM85.4196 23.3994C84.8356 23.3994 84.2647 23.2262 83.7792 22.9018C83.2936 22.5773 82.9152 22.1162 82.6917 21.5767C82.4682 21.0372 82.4098 20.4435 82.5237 19.8707C82.6376 19.298 82.9188 18.7719 83.3318 18.359C83.7447 17.946 84.2708 17.6648 84.8435 17.5509C85.4163 17.437 86.01 17.4954 86.5495 17.7189C87.089 17.9424 87.5501 18.3208 87.8746 18.8064C88.199 19.2919 88.3722 19.8628 88.3722 20.4468C88.3714 21.2296 88.06 21.9801 87.5065 22.5337C86.9529 23.0872 86.2024 23.3986 85.4196 23.3994Z" fill="black"/>
<path fill-rule="evenodd" clip-rule="evenodd" d="M26.3561 54.6653C24.8104 54.4853 23.2491 54.4853 21.7035 54.6653L20.997 58.1301C19.5469 58.3973 18.1385 58.8549 16.8083 59.4911L14.2007 57.1042C12.8434 57.8662 11.5795 58.7838 10.4346 59.8384L11.8989 63.0561C10.8829 64.1248 10.0124 65.323 9.31006 66.6196L5.79781 66.2204C5.14936 67.6345 4.66758 69.1193 4.36218 70.6448L7.43832 72.3839C7.24399 73.8455 7.24399 75.3264 7.43832 76.788L4.36218 78.5332C4.66803 80.0591 5.15058 81.5441 5.80007 82.9583L9.31232 82.5599C10.0147 83.8562 10.8851 85.0541 11.9011 86.1226L10.4369 89.3403C11.5817 90.3952 12.8456 91.313 14.203 92.0753L16.8106 89.6883C18.1408 90.3243 19.5492 90.7817 20.9992 91.0486L21.7057 94.5134C23.2514 94.6934 24.8127 94.6934 26.3584 94.5134L27.0649 91.0486C28.5149 90.7817 29.9233 90.3243 31.2535 89.6883L33.8611 92.0753C35.2185 91.313 36.4824 90.3952 37.6272 89.3403L36.163 86.1226C37.1789 85.0543 38.0492 83.8564 38.751 82.5599L42.264 82.9583C42.9135 81.5441 43.3961 80.0591 43.7019 78.5332L40.6258 76.791C40.8194 75.3294 40.8194 73.8486 40.6258 72.3869L43.7019 70.6448C43.3958 69.1189 42.9133 67.6339 42.264 66.2196L38.751 66.6188C38.0492 65.3221 37.179 64.1239 36.163 63.0553L37.6272 59.8376C36.4823 58.783 35.2185 57.8654 33.8611 57.1034L31.252 59.4904C29.9218 58.8542 28.5134 58.3965 27.0634 58.1293L26.3561 54.6653ZM24.0294 69.1105C25.1131 69.1103 26.1724 69.4315 27.0735 70.0334C27.9746 70.6354 28.677 71.491 29.0918 72.4921C29.5066 73.4933 29.6152 74.5949 29.4039 75.6578C29.1926 76.7206 28.6708 77.6969 27.9046 78.4632C27.1384 79.2296 26.1621 79.7514 25.0993 79.9629C24.0365 80.1744 22.9348 80.0659 21.9337 79.6513C20.9325 79.2366 20.0767 78.5344 19.4747 77.6333C18.8726 76.7323 18.5513 75.673 18.5513 74.5894C18.5519 73.1366 19.1292 71.7435 20.1564 70.7161C21.1836 69.6888 22.5766 69.1113 24.0294 69.1105Z" fill="#8B5CF6"/>
<path d="M21.6599 94.8879C21.5807 94.8787 21.5064 94.8446 21.4478 94.7904C21.3891 94.7363 21.3492 94.6649 21.3338 94.5866L20.6785 91.3704C19.3675 91.1078 18.0917 90.693 16.877 90.1344L14.4554 92.3533C14.3969 92.407 14.3229 92.4407 14.2441 92.4498C14.1652 92.4588 14.0855 92.4428 14.0163 92.4038C12.6344 91.6266 11.3476 90.6913 10.1817 89.6169C10.1234 89.5633 10.0835 89.4926 10.0677 89.415C10.0519 89.3374 10.0609 89.2567 10.0936 89.1846L11.4539 86.1966C10.5475 85.2139 9.75905 84.1287 9.10459 82.963L5.84316 83.3336C5.76425 83.3433 5.6843 83.3275 5.61503 83.2884C5.54577 83.2494 5.49083 83.1892 5.45827 83.1167C4.79658 81.6757 4.30494 80.1626 3.99326 78.6079C3.97774 78.5302 3.98715 78.4495 4.02015 78.3774C4.05315 78.3053 4.10806 78.2455 4.17705 78.2064L7.03324 76.5878C6.87733 75.2601 6.87733 73.9188 7.03324 72.5912L4.17705 70.9725C4.10792 70.9334 4.05291 70.8735 4.0199 70.8013C3.9869 70.729 3.97757 70.6482 3.99326 70.5703C4.30506 69.0159 4.7967 67.5031 5.45827 66.0623C5.4914 65.9902 5.54645 65.9305 5.61556 65.8915C5.68468 65.8525 5.76433 65.8364 5.84316 65.8454L9.10459 66.216C9.75886 65.0502 10.5473 63.9649 11.4539 62.9824L10.0936 59.9937C10.0609 59.9215 10.0519 59.8409 10.0677 59.7632C10.0835 59.6856 10.1234 59.615 10.1817 59.5613C11.3474 58.4866 12.6342 57.5514 14.0163 56.7744C14.0854 56.7354 14.1651 56.7192 14.2439 56.7281C14.3228 56.737 14.3968 56.7706 14.4554 56.8241L16.877 59.0424C18.0916 58.4834 19.3674 58.0686 20.6785 57.8063L21.3338 54.5901C21.3492 54.5118 21.3891 54.4404 21.4478 54.3863C21.5064 54.3321 21.5807 54.298 21.6599 54.2888C23.2347 54.1065 24.8252 54.1065 26.3999 54.2888C26.4791 54.2981 26.5532 54.3323 26.6117 54.3865C26.6701 54.4406 26.7099 54.5119 26.7253 54.5901L27.3814 57.8063C28.6922 58.0685 29.9678 58.4833 31.1821 59.0424L33.6037 56.8241C33.6623 56.7706 33.7363 56.737 33.8152 56.7281C33.8941 56.7192 33.9737 56.7354 34.0428 56.7744C35.4251 57.5513 36.7123 58.4866 37.8782 59.5613C37.9364 59.6151 37.9761 59.6857 37.9918 59.7634C38.0075 59.841 37.9983 59.9216 37.9656 59.9937L36.6098 62.9824C37.5163 63.9649 38.3048 65.0502 38.9591 66.216L42.2212 65.8454C42.3002 65.8365 42.3799 65.8527 42.449 65.8918C42.5181 65.9309 42.5731 65.9909 42.6061 66.0631C43.267 67.5038 43.7584 69.0163 44.0704 70.5703C44.0861 70.6482 44.0768 70.729 44.0437 70.8013C44.0107 70.8735 43.9557 70.9334 43.8866 70.9725L41.0304 72.5912C41.1863 73.9188 41.1863 75.2601 41.0304 76.5878L43.8866 78.2064C43.9556 78.2455 44.0105 78.3053 44.0435 78.3774C44.0765 78.4495 44.0859 78.5302 44.0704 78.6079C43.7585 80.1622 43.2671 81.675 42.6061 83.1159C42.5738 83.1887 42.5189 83.2491 42.4496 83.2883C42.3803 83.3275 42.3003 83.3434 42.2212 83.3336L38.9591 82.963C38.3046 84.1287 37.5162 85.2139 36.6098 86.1966L37.9656 89.1846C37.9983 89.2567 38.0075 89.3373 37.9918 89.4149C37.9761 89.4925 37.9364 89.5632 37.8782 89.6169C36.7121 90.6914 35.425 91.6266 34.0428 92.4038C33.9736 92.4428 33.8939 92.4588 33.8151 92.4498C33.7362 92.4407 33.6622 92.407 33.6037 92.3533L31.1821 90.1359C29.9677 90.6946 28.6921 91.1094 27.3814 91.3719L26.7253 94.5881C26.7099 94.6663 26.6701 94.7376 26.6117 94.7918C26.5532 94.8459 26.4791 94.8801 26.3999 94.8894C24.8252 95.072 23.2346 95.0715 21.6599 94.8879ZM22.017 94.1686C23.3552 94.3049 24.7039 94.3049 26.0422 94.1686L26.6929 90.9742C26.7081 90.9007 26.7449 90.8334 26.7985 90.7809C26.8522 90.7284 26.9204 90.6932 26.9942 90.6797C28.4114 90.4176 29.7878 89.9698 31.088 89.348C31.1557 89.3155 31.2317 89.304 31.3061 89.315C31.3804 89.326 31.4498 89.359 31.5052 89.4098L33.9103 91.6122C35.0737 90.937 36.1648 90.1443 37.1664 89.2463L35.8159 86.2787C35.7848 86.2103 35.7748 86.1341 35.7873 86.06C35.7998 85.986 35.8341 85.9173 35.8859 85.8629C36.8789 84.8186 37.7296 83.6478 38.416 82.3808C38.4519 82.3142 38.507 82.26 38.5742 82.2252C38.6414 82.1904 38.7175 82.1766 38.7926 82.1857L42.0314 82.554C42.5744 81.3235 42.9909 80.041 43.2742 78.7262L40.4376 77.1188C40.3723 77.0819 40.3195 77.0264 40.2859 76.9593C40.2524 76.8922 40.2396 76.8166 40.2493 76.7422C40.4392 75.3133 40.4392 73.8656 40.2493 72.4368C40.2396 72.3624 40.2524 72.2868 40.2859 72.2197C40.3195 72.1526 40.3723 72.0971 40.4376 72.0602L43.2742 70.4528C42.9909 69.138 42.5744 67.8555 42.0314 66.625L38.7926 66.9926C38.7176 67.0017 38.6415 66.988 38.5744 66.9534C38.5072 66.9187 38.452 66.8647 38.416 66.7982C37.7298 65.5311 36.8791 64.3602 35.8859 63.3161C35.8341 63.2617 35.7998 63.193 35.7873 63.1189C35.7748 63.0448 35.7848 62.9687 35.8159 62.9003L37.1664 59.9319C36.1648 59.0342 35.0737 58.2417 33.9103 57.5668L31.5052 59.7692C31.4498 59.82 31.3804 59.853 31.3061 59.864C31.2317 59.875 31.1557 59.8635 31.088 59.831C29.7879 59.2088 28.4115 58.7611 26.9942 58.4993C26.9203 58.4858 26.8521 58.4504 26.7984 58.3978C26.7447 58.3452 26.708 58.2777 26.6929 58.204L26.0422 55.0096C24.7039 54.8733 23.3552 54.8733 22.017 55.0096L21.3662 58.204C21.3512 58.2777 21.3145 58.3452 21.2608 58.3978C21.2071 58.4504 21.1389 58.4858 21.0649 58.4993C19.6475 58.7612 18.2707 59.2089 16.9704 59.831C16.9027 59.8633 16.8269 59.8748 16.7527 59.8637C16.6785 59.8527 16.6093 59.8198 16.5539 59.7692L14.1489 57.5668C12.9853 58.2415 11.8942 59.034 10.8927 59.9319L12.2432 62.9003C12.2744 62.9687 12.2843 63.0448 12.2719 63.1189C12.2594 63.193 12.225 63.2617 12.1732 63.3161C11.18 64.3602 10.3293 65.5311 9.64314 66.7982C9.60784 66.8653 9.55279 66.9199 9.48543 66.9547C9.41807 66.9894 9.34165 67.0027 9.26653 66.9926L6.0277 66.625C5.4832 67.8551 5.06625 69.1377 4.78339 70.4528L7.62376 72.0602C7.68909 72.0971 7.74192 72.1526 7.77547 72.2197C7.80901 72.2868 7.82176 72.3624 7.81207 72.4368C7.62223 73.8656 7.62223 75.3133 7.81207 76.7422C7.82176 76.8166 7.80901 76.8922 7.77547 76.9593C7.74192 77.0264 7.68909 77.0819 7.62376 77.1188L4.7864 78.7262C5.06936 80.0408 5.48631 81.3229 6.03071 82.5525L9.26954 82.1842C9.34478 82.1738 9.42138 82.187 9.48882 82.2219C9.55626 82.2568 9.61122 82.3118 9.64615 82.3793C10.3314 83.648 11.1814 84.8206 12.1739 85.8666C12.2258 85.9211 12.2601 85.9897 12.2726 86.0638C12.2851 86.1379 12.2751 86.214 12.244 86.2824L10.8935 89.2501C11.8949 90.1482 12.986 90.941 14.1496 91.6159L16.5546 89.4135C16.61 89.3629 16.6793 89.33 16.7535 89.319C16.8277 89.308 16.9035 89.3194 16.9712 89.3518C18.2716 89.9735 19.6483 90.4212 21.0657 90.6835C21.1395 90.6969 21.2077 90.7322 21.2613 90.7846C21.315 90.8371 21.3518 90.9044 21.3669 90.978L22.017 94.1686ZM24.0296 80.445C22.8715 80.445 21.7394 80.1016 20.7764 79.4582C19.8135 78.8148 19.063 77.9003 18.6198 76.8303C18.1766 75.7603 18.0606 74.583 18.2866 73.4471C18.5125 72.3113 19.0702 71.2679 19.8891 70.449C20.708 69.6301 21.7514 69.0724 22.8872 68.8465C24.0231 68.6206 25.2004 68.7365 26.2704 69.1797C27.3403 69.6229 28.2548 70.3734 28.8982 71.3364C29.5416 72.2993 29.8851 73.4314 29.8851 74.5895C29.8829 76.1417 29.2652 77.6296 28.1675 78.727C27.0698 79.8244 25.5817 80.4417 24.0296 80.4435V80.445ZM24.0296 69.4872C23.0204 69.4872 22.034 69.7864 21.1949 70.3471C20.3558 70.9077 19.7018 71.7046 19.3157 72.6369C18.9295 73.5693 18.8284 74.5952 19.0253 75.5849C19.2222 76.5746 19.7081 77.4838 20.4217 78.1974C21.1353 78.9109 22.0444 79.3969 23.0342 79.5937C24.0239 79.7906 25.0498 79.6896 25.9821 79.3034C26.9144 78.9172 27.7113 78.2632 28.272 77.4242C28.8326 76.5851 29.1319 75.5986 29.1319 74.5895C29.1305 73.2367 28.5924 71.9397 27.6359 70.9832C26.6793 70.0266 25.3823 69.4886 24.0296 69.4872Z" fill="black"/>
<path fill-rule="evenodd" clip-rule="evenodd" d="M86.4758 105.106C86.4756 104.279 86.147 103.486 85.5622 102.901C84.9774 102.317 84.1844 101.988 83.3575 101.988H41.7091C41.2956 101.982 40.8849 102.058 40.501 102.211C40.1171 102.365 39.7676 102.594 39.4729 102.884C39.1782 103.174 38.9441 103.52 38.7844 103.902C38.6246 104.283 38.5424 104.693 38.5424 105.106C38.5424 105.52 38.6246 105.929 38.7844 106.311C38.9441 106.692 39.1782 107.038 39.4729 107.328C39.7676 107.618 40.1171 107.847 40.501 108.001C40.8849 108.155 41.2956 108.23 41.7091 108.224H83.3575C84.1844 108.224 84.9775 107.895 85.5622 107.31C86.147 106.726 86.4756 105.933 86.4758 105.106Z" fill="white"/>
<path fill-rule="evenodd" clip-rule="evenodd" d="M86.4758 114.613C86.4758 113.786 86.1473 112.993 85.5625 112.408C84.9777 111.823 84.1845 111.495 83.3575 111.495H41.7091C41.2956 111.488 40.8849 111.564 40.501 111.718C40.1171 111.872 39.7676 112.1 39.4729 112.391C39.1782 112.681 38.9441 113.027 38.7844 113.408C38.6246 113.79 38.5424 114.199 38.5424 114.613C38.5424 115.026 38.6246 115.436 38.7844 115.817C38.9441 116.199 39.1782 116.545 39.4729 116.835C39.7676 117.125 40.1171 117.354 40.501 117.507C40.8849 117.661 41.2956 117.737 41.7091 117.731H83.3575C84.1844 117.731 84.9774 117.402 85.5622 116.818C86.147 116.233 86.4756 115.44 86.4758 114.613Z" fill="white"/>
<path fill-rule="evenodd" clip-rule="evenodd" d="M86.4758 124.12C86.4756 123.293 86.147 122.5 85.5622 121.915C84.9775 121.33 84.1844 121.002 83.3575 121.001H41.7091C41.2956 120.995 40.8849 121.071 40.501 121.225C40.1171 121.378 39.7676 121.607 39.4729 121.897C39.1782 122.187 38.9441 122.533 38.7844 122.915C38.6246 123.296 38.5424 123.706 38.5424 124.119C38.5424 124.533 38.6246 124.942 38.7844 125.324C38.9441 125.705 39.1782 126.051 39.4729 126.341C39.7676 126.632 40.1171 126.86 40.501 127.014C40.8849 127.168 41.2956 127.244 41.7091 127.237H83.3575C84.1844 127.237 84.9774 126.909 85.5622 126.324C86.147 125.74 86.4756 124.947 86.4758 124.12Z" fill="white"/>
<path d="M83.3574 108.602H41.7091C41.2458 108.609 40.7857 108.523 40.3557 108.351C39.9257 108.178 39.5342 107.922 39.2042 107.597C38.8741 107.271 38.612 106.884 38.4331 106.456C38.2542 106.029 38.1621 105.57 38.1621 105.107C38.1621 104.643 38.2542 104.185 38.4331 103.757C38.612 103.33 38.8741 102.942 39.2042 102.617C39.5342 102.292 39.9257 102.035 40.3557 101.863C40.7857 101.69 41.2458 101.605 41.7091 101.611H83.3574C84.2756 101.625 85.1515 101.999 85.796 102.653C86.4405 103.307 86.8018 104.189 86.8018 105.107C86.8018 106.025 86.4405 106.906 85.796 107.56C85.1515 108.214 84.2756 108.589 83.3574 108.602ZM41.7091 102.362C41.3452 102.356 40.9837 102.423 40.6457 102.558C40.3078 102.693 40.0001 102.894 39.7406 103.149C39.4811 103.405 39.275 103.709 39.1343 104.045C38.9936 104.38 38.9212 104.741 38.9212 105.104C38.9212 105.468 38.9936 105.829 39.1343 106.164C39.275 106.5 39.4811 106.804 39.7406 107.06C40.0001 107.315 40.3078 107.516 40.6457 107.651C40.9837 107.786 41.3452 107.853 41.7091 107.847H83.3574C84.0768 107.835 84.7627 107.541 85.2672 107.028C85.7717 106.515 86.0544 105.824 86.0544 105.104C86.0544 104.385 85.7717 103.694 85.2672 103.181C84.7627 102.668 84.0768 102.374 83.3574 102.362H41.7091Z" fill="black"/>
<path d="M83.3574 118.108H41.7091C41.2458 118.115 40.7857 118.03 40.3557 117.857C39.9257 117.684 39.5342 117.428 39.2042 117.103C38.8741 116.778 38.612 116.39 38.4331 115.962C38.2542 115.535 38.1621 115.076 38.1621 114.613C38.1621 114.149 38.2542 113.691 38.4331 113.263C38.612 112.836 38.8741 112.448 39.2042 112.123C39.5342 111.798 39.9257 111.541 40.3557 111.369C40.7857 111.196 41.2458 111.111 41.7091 111.118H83.3574C84.2756 111.131 85.1515 111.505 85.796 112.159C86.4405 112.813 86.8018 113.695 86.8018 114.613C86.8018 115.531 86.4405 116.412 85.796 117.066C85.1515 117.721 84.2756 118.095 83.3574 118.108ZM41.7091 111.871C41.3452 111.865 40.9837 111.931 40.6457 112.066C40.3078 112.201 40.0001 112.402 39.7406 112.658C39.4811 112.913 39.275 113.217 39.1343 113.553C38.9936 113.889 38.9212 114.249 38.9212 114.613C38.9212 114.977 38.9936 115.337 39.1343 115.673C39.275 116.009 39.4811 116.313 39.7406 116.568C40.0001 116.823 40.3078 117.024 40.6457 117.159C40.9837 117.295 41.3452 117.361 41.7091 117.355H83.3574C84.0768 117.343 84.7627 117.049 85.2672 116.536C85.7717 116.023 86.0544 115.332 86.0544 114.613C86.0544 113.893 85.7717 113.203 85.2672 112.69C84.7627 112.177 84.0768 111.883 83.3574 111.871H41.7091Z" fill="black"/>
<path d="M83.3579 127.614H41.7095C40.7826 127.614 39.8937 127.246 39.2382 126.591C38.5828 125.935 38.2146 125.046 38.2146 124.119C38.2146 123.193 38.5828 122.304 39.2382 121.648C39.8937 120.993 40.7826 120.625 41.7095 120.625H83.3579C84.2848 120.625 85.1737 120.993 85.8291 121.648C86.4846 122.304 86.8528 123.193 86.8528 124.119C86.8528 125.046 86.4846 125.935 85.8291 126.591C85.1737 127.246 84.2848 127.614 83.3579 127.614ZM41.7095 121.378C40.9824 121.378 40.285 121.667 39.7708 122.181C39.2567 122.695 38.9678 123.392 38.9678 124.119C38.9678 124.847 39.2567 125.544 39.7708 126.058C40.285 126.572 40.9824 126.861 41.7095 126.861H83.3579C84.085 126.861 84.7824 126.572 85.2965 126.058C85.8107 125.544 86.0996 124.847 86.0996 124.119C86.0996 123.392 85.8107 122.695 85.2965 122.181C84.7824 121.667 84.085 121.378 83.3579 121.378H41.7095Z" fill="black"/>
<path fill-rule="evenodd" clip-rule="evenodd" d="M50.3971 105.206C50.3969 104.706 50.1979 104.225 49.8439 103.871C49.4898 103.517 49.0096 103.318 48.5088 103.318H43.228C42.7272 103.318 42.2469 103.517 41.8928 103.871C41.5387 104.225 41.3397 104.706 41.3397 105.206C41.3397 105.707 41.5387 106.188 41.8928 106.542C42.2469 106.896 42.7272 107.095 43.228 107.095H48.5088C49.0096 107.095 49.4899 106.896 49.8441 106.542C50.1982 106.188 50.3971 105.707 50.3971 105.206Z" fill="black"/>
<path fill-rule="evenodd" clip-rule="evenodd" d="M60.2083 114.715C60.2081 114.214 60.0091 113.734 59.655 113.38C59.3008 113.026 58.8207 112.827 58.32 112.827H53.0392C52.7881 112.822 52.5385 112.867 52.3051 112.96C52.0716 113.052 51.859 113.191 51.6796 113.366C51.5003 113.542 51.3578 113.752 51.2605 113.984C51.1633 114.215 51.1132 114.464 51.1132 114.715C51.1132 114.966 51.1633 115.215 51.2605 115.446C51.3578 115.678 51.5003 115.888 51.6796 116.063C51.859 116.239 52.0716 116.378 52.3051 116.47C52.5385 116.563 52.7881 116.608 53.0392 116.603H58.32C58.8208 116.603 59.3011 116.404 59.6552 116.05C60.0093 115.696 60.2083 115.215 60.2083 114.715Z" fill="black"/>
<path fill-rule="evenodd" clip-rule="evenodd" d="M60.2083 124.22C60.2083 123.72 60.0093 123.239 59.6552 122.885C59.3011 122.531 58.8208 122.332 58.32 122.332H53.0392C52.7881 122.327 52.5385 122.372 52.3051 122.465C52.0716 122.558 51.859 122.696 51.6796 122.872C51.5003 123.047 51.3578 123.257 51.2605 123.489C51.1633 123.72 51.1132 123.969 51.1132 124.22C51.1132 124.471 51.1633 124.72 51.2605 124.951C51.3578 125.183 51.5003 125.393 51.6796 125.569C51.859 125.744 52.0716 125.883 52.3051 125.975C52.5385 126.068 52.7881 126.113 53.0392 126.108H58.32C58.8207 126.108 59.3008 125.909 59.655 125.555C60.0091 125.201 60.2081 124.721 60.2083 124.22Z" fill="black"/>
<path fill-rule="evenodd" clip-rule="evenodd" d="M64.4099 58.4034L137.71 90.5898C137.71 90.5898 144.453 93.9853 146.961 88.5019C149.468 83.0185 141.96 79.9228 141.96 79.9228L70.682 46.8566C70.682 46.8566 72.5823 37.8873 65.1082 32.2442C57.634 26.6011 46.3923 27.92 46.3169 30.731C46.2823 32.0943 48.8673 33.4147 48.8673 33.4147L60.1995 40.5032L54.353 51.3917L41.3382 43.6961C41.3382 43.6961 38.4692 41.7596 38.595 44.3296C38.7207 46.8995 40.8546 56.3193 49.8721 59.5528C58.8896 62.7864 64.4099 58.4034 64.4099 58.4034ZM141.063 84.4255C141.438 84.4257 141.805 84.5371 142.117 84.7457C142.429 84.9542 142.672 85.2506 142.816 85.5973C142.959 85.944 142.997 86.3255 142.923 86.6935C142.85 87.0615 142.669 87.3995 142.404 87.6648C142.138 87.93 141.8 88.1107 141.432 88.1838C141.064 88.257 140.683 88.2194 140.336 88.0757C139.99 87.9321 139.693 87.6889 139.485 87.3769C139.276 87.0649 139.165 86.6981 139.165 86.3229C139.165 86.0736 139.214 85.8269 139.31 85.5966C139.405 85.3664 139.545 85.1572 139.721 84.981C139.897 84.8048 140.107 84.665 140.337 84.5697C140.567 84.4744 140.814 84.4254 141.063 84.4255Z" fill="white"/>
<path d="M142.033 92.0077C140.476 91.965 138.946 91.5966 137.54 90.926L64.4581 58.839C63.3991 59.587 58.0452 62.8868 49.744 59.9109C40.7973 56.7022 38.3652 47.3683 38.2198 44.3509C38.162 44.0561 38.191 43.7508 38.3031 43.4721C38.4153 43.1933 38.6059 42.9531 38.8517 42.7805C39.8061 42.2434 41.3743 43.2685 41.549 43.3883L54.2076 50.8708L59.706 40.6413L48.6684 33.7366C48.4108 33.6063 45.9018 32.2791 45.941 30.7237C46.0261 27.323 57.8576 26.3031 65.3318 31.9424C72.1386 37.0794 71.347 45.0032 71.0999 46.6339L142.118 79.5803C142.272 79.6429 146.26 81.318 147.493 84.4499C147.756 85.1258 147.875 85.8493 147.843 86.5741C147.81 87.2988 147.626 88.0087 147.303 88.6581C146.877 89.6914 146.142 90.5678 145.198 91.1673C144.255 91.7669 143.15 92.0604 142.033 92.0077ZM64.8113 58.0075C66.5279 58.8315 87.7535 68.374 137.86 90.2451C137.911 90.2677 141.221 91.9022 143.913 90.9569C144.52 90.7334 145.074 90.3858 145.54 89.9363C146.005 89.4869 146.372 88.9453 146.617 88.3463C146.896 87.789 147.056 87.1796 147.086 86.5571C147.117 85.9345 147.017 85.3125 146.793 84.7308C145.674 81.8942 141.854 80.2914 141.816 80.2748L70.523 47.1966C70.4458 47.1608 70.383 47.0999 70.3448 47.0238C70.3067 46.9478 70.2954 46.8611 70.3128 46.7778C70.3309 46.6896 72.0693 37.9704 64.8791 32.542C57.417 26.9124 46.75 28.5198 46.6942 30.7403C46.6709 31.657 48.4266 32.7634 49.0397 33.0753L60.4013 40.1871C60.4821 40.2378 60.5408 40.3174 60.5652 40.4097C60.5897 40.502 60.5782 40.6001 60.5331 40.6843L54.6843 51.5697C54.6604 51.615 54.6274 51.6549 54.5875 51.6869C54.5476 51.719 54.5015 51.7426 54.4522 51.7563C54.4028 51.77 54.3512 51.7734 54.3005 51.7665C54.2497 51.7595 54.2009 51.7423 54.1571 51.7159L41.1453 44.021C40.5713 43.6361 39.6102 43.212 39.2193 43.4335C38.9851 43.5661 38.9549 43.9841 38.97 44.311C39.1108 47.1981 41.439 56.1297 49.9986 59.1991C58.6945 62.3189 64.1229 58.1513 64.1756 58.1084C64.5168 57.838 64.666 57.9382 64.8113 58.0075Z" fill="black"/>
<path fill-rule="evenodd" clip-rule="evenodd" d="M120.26 131.707C119.318 131.696 118.378 131.815 117.469 132.061C117.315 132.27 117.208 132.51 117.154 132.764C117.1 133.019 117.101 133.281 117.156 133.535C117.307 134.499 118.534 134.869 119.588 135.147C120.408 135.414 121.11 135.958 121.573 136.686C121.998 137.209 122.552 139.566 124.443 139.831C126.334 140.097 127.004 139.146 127.004 139.146L127.37 137.06C127.521 136.615 127.601 136.15 127.609 135.681L127.542 135.644C126.825 136.036 126.001 136.184 125.192 136.068C124.384 135.952 123.635 135.578 123.057 135C122.011 134.076 121.029 133.08 120.119 132.021C120.178 131.923 120.225 131.817 120.26 131.707Z" fill="white"/>
<path fill-rule="evenodd" clip-rule="evenodd" d="M98.4208 131.566C98.1948 133.543 97.9764 135.021 97.9764 135.021C97.9764 135.021 102.602 141.521 105.385 140.029C105.921 139.807 106.398 139.465 106.781 139.03C107.163 138.594 107.441 138.076 107.592 137.517L107.657 137.56C107.661 138.491 107.485 139.414 107.139 140.278C107.139 140.278 107.115 142.324 104.679 142.383C102.242 142.442 100.057 140.618 99.3231 139.71C98.5895 138.802 96.0203 135.647 95.7514 134.551C94.7391 131.21 97.1644 131.596 98.4208 131.566Z" fill="white"/>
<path fill-rule="evenodd" clip-rule="evenodd" d="M88.6526 69.0643L96.7527 56.7484C98.0919 54.7148 100.771 53.5849 102.035 52.5899C103.299 51.5949 105.369 49.1319 107.74 49.04C109.508 48.9715 109.908 49.083 112.46 50.8477C116.133 53.3891 118.572 53.081 120.293 54.8044C122.014 56.5277 123.018 60.9152 124.898 64.0576C126.778 67.2001 129.775 71.2554 130.171 74.3443L119.882 69.7301L118.015 65.4255C115.653 68.9099 116.556 73.5143 116.132 76.9753C115.708 80.4363 119.725 85.0159 120.608 88.2171C121.491 91.4182 120.725 94.9553 120.814 100.118C120.904 105.28 122.599 106.209 123.717 110.018C124.73 113.361 125.265 116.83 125.307 120.323C125.385 123.567 126.109 126.764 127.437 129.725C128.193 131.212 128.627 132.842 128.711 134.507C127.254 136.622 124.775 136.519 123.051 134.999C122.005 134.074 121.024 133.079 120.114 132.02C121.074 130.484 119.565 124.289 118.181 121.243C116.797 118.196 115.551 112.848 114.986 109.61C114.421 106.372 109.178 95.5564 109.178 95.5564C108.946 99.1809 107.282 106.086 107.671 109.854C108.096 112.974 108.187 116.13 107.943 119.269C107.642 121.884 107.027 129.533 107.75 131.835C108.473 134.137 109.175 134.668 108.229 135.847C107.282 137.025 108.163 138.54 105.38 140.032C102.597 141.523 97.9714 135.023 97.9714 135.023C98.4852 131.554 98.8043 128.059 98.9272 124.554V110.475C98.9272 108.268 100.251 106.408 98.9272 101.181C97.6031 95.9548 98.9272 81.118 98.9272 79.7411C98.9272 78.3642 100.854 72.801 100.251 70.808C99.8664 69.3854 99.654 67.9217 99.6187 66.4484C99.6187 66.4484 93.7707 75.3597 91.3092 76.1648C88.8477 76.97 86.3191 74.7639 84.3186 73.6077C82.5723 72.4987 81.1739 70.9202 80.2836 69.053C80.1369 68.7061 79.9119 68.3978 79.6263 68.1523C79.3407 67.9067 79.0021 67.7306 78.6371 67.6377C78.722 66.7132 79.0667 65.8317 79.6313 65.0948L88.6526 69.0643Z" fill="#1D4ED8"/>
<path d="M141.063 88.597C140.613 88.5968 140.174 88.4634 139.8 88.2134C139.426 87.9635 139.135 87.6084 138.963 87.1929C138.791 86.7774 138.746 86.3203 138.833 85.8792C138.921 85.4382 139.138 85.0331 139.456 84.7151C139.774 84.3971 140.179 84.1806 140.62 84.0928C141.061 84.005 141.518 84.05 141.934 84.222C142.349 84.394 142.704 84.6854 142.954 85.0592C143.204 85.4331 143.337 85.8726 143.338 86.3223C143.337 86.9255 143.097 87.5038 142.671 87.9303C142.244 88.3568 141.666 88.5966 141.063 88.597ZM141.063 84.8023C140.762 84.8024 140.468 84.8918 140.218 85.059C139.968 85.2262 139.773 85.4638 139.658 85.7418C139.543 86.0197 139.513 86.3255 139.572 86.6205C139.631 86.9154 139.776 87.1863 139.989 87.3989C140.202 87.6115 140.473 87.7562 140.768 87.8147C141.063 87.8732 141.368 87.843 141.646 87.7277C141.924 87.6125 142.162 87.4175 142.329 87.1673C142.495 86.9171 142.585 86.6231 142.584 86.3223C142.584 85.9191 142.423 85.5326 142.138 85.2476C141.853 84.9626 141.466 84.8025 141.063 84.8023Z" fill="black"/>
<path fill-rule="evenodd" clip-rule="evenodd" d="M101.743 39.657C101.843 40.1558 101.776 40.6737 101.551 41.1303C101.175 41.6929 100.141 42.3181 100.267 42.6909C100.394 43.0638 101.16 43.4539 101.16 43.4539C101.16 43.4539 100.586 44.2825 100.892 44.5491C101.163 44.7418 101.47 44.8769 101.795 44.946C101.795 44.946 101.135 44.9845 101.118 45.346C101.1 45.7075 101.662 45.9757 101.669 46.2551C101.676 46.5346 101.111 48.7227 103.819 48.4462L104.401 50.5289C104.401 50.5289 106.41 48.92 108.092 49.0669C109.1 49.1547 110.086 49.419 111.003 49.848C111.003 49.848 110.045 47.739 110.467 46.5918C110.467 46.5918 108.81 46.7929 108.399 45.6051C108.399 45.6051 109.837 44.8029 109.548 44.0354C109.26 43.2679 108.644 42.6043 107.741 43.2212C106.837 43.8381 106.252 44.9204 105.325 43.771C104.398 42.6216 104.12 39.4543 104.12 39.4543L101.743 39.657Z" fill="white"/>
<path fill-rule="evenodd" clip-rule="evenodd" d="M114.916 42.4951L104.108 39.5296L101.44 38.3185C101.44 38.3185 102.246 33.6259 106.834 33.2719C111.421 32.9179 115.213 35.5948 115.375 38.0398C115.468 39.54 115.313 41.0453 114.916 42.4951Z" fill="white"/>
<path fill-rule="evenodd" clip-rule="evenodd" d="M75.3962 61.7493C74.8539 61.506 75.1868 62.4068 75.6222 63.3054L74.0841 62.7111C74.0841 62.7111 74.2197 64.848 75.6531 65.892C76.5787 66.5529 77.5723 67.1129 78.617 67.5626C78.7314 66.7248 79.0198 65.9202 79.4636 65.2005C79.4636 65.2005 76.4168 62.208 75.3962 61.7493Z" fill="#FFD997"/>
<path d="M130.546 74.2979C130.139 71.1065 127.088 66.9781 125.225 63.8658C123.361 60.7536 122.362 56.3389 120.562 54.5395C119.103 53.0805 117.423 53.1287 114.427 51.602C113.346 50.9996 112.3 50.3367 111.293 49.6165C110.976 48.7718 110.827 47.8731 110.855 46.9712C111.202 46.9494 111.544 46.8844 111.874 46.7776C111.808 47.1807 111.865 47.5941 112.036 47.9647C112.208 48.3353 112.486 48.6461 112.836 48.8573C114.625 49.7732 116.427 48.2471 116.798 46.6488C117.139 45.1785 116.358 43.7053 114.322 43.7919C114.433 43.4664 114.52 43.1334 114.583 42.7954C114.69 42.8342 114.802 42.8595 114.915 42.8707C114.996 42.8707 115.074 42.8449 115.139 42.797C115.204 42.7492 115.252 42.6818 115.275 42.6048C115.688 41.1124 115.849 39.5615 115.751 38.0162C115.594 36.8501 114.983 35.793 114.051 35.0749C112.013 33.4301 109.412 32.6487 106.805 32.8981C102.621 33.2182 101.386 36.9738 101.127 37.9974C98.4756 38.5615 98.5366 39.2078 98.5577 39.424C98.5818 39.6823 98.6187 40.0687 100.868 40.0687C101.046 40.0687 101.237 40.0687 101.443 40.0612C101.464 40.3622 101.392 40.6623 101.237 40.9214C100.687 41.7499 98.8794 42.4278 100.62 43.5727C100.514 43.7224 100.458 43.9012 100.458 44.0845C100.458 44.2678 100.514 44.4466 100.62 44.5963C100.713 44.7065 100.821 44.8037 100.94 44.8855C100.824 45.0045 100.755 45.1621 100.747 45.3284C100.757 45.482 100.797 45.6319 100.867 45.769C100.937 45.9061 101.034 46.0274 101.153 46.1253C101.208 46.1833 101.289 46.2632 101.299 46.2564C101.299 46.2797 101.294 46.3151 101.289 46.3603C101.218 46.6966 101.224 47.0444 101.306 47.3782C101.387 47.712 101.542 48.0233 101.76 48.2893C101.997 48.4943 102.273 48.6491 102.572 48.7445C102.871 48.8399 103.186 48.8739 103.498 48.8444C103.582 49.3857 103.73 49.915 103.939 50.4209C103.496 50.7832 103.085 51.1576 102.715 51.495C102.027 52.1708 101.25 52.7491 100.405 53.2139C99.0775 54.0281 97.4257 55.0412 96.4389 56.5408L88.5151 68.5923L79.6535 64.6868C79.5879 64.6584 79.5155 64.6493 79.4449 64.6605C78.6344 63.8771 76.4516 61.8118 75.5522 61.4073C75.4462 61.3426 75.3212 61.316 75.1979 61.3319C75.0747 61.3477 74.9605 61.4052 74.8744 61.4947C74.781 61.5972 74.6107 61.787 74.9211 62.6524L74.2236 62.3662C74.1645 62.3419 74.1003 62.3331 74.0368 62.3405C73.9734 62.3479 73.9129 62.3713 73.861 62.4085C73.8091 62.4457 73.7676 62.4955 73.7402 62.5532C73.7128 62.6109 73.7006 62.6746 73.7046 62.7383C73.7099 62.8324 73.8696 65.0642 75.4272 66.1993C76.3376 66.8498 77.3123 67.405 78.3361 67.8564C78.3925 67.935 78.4769 67.9889 78.5719 68.007C78.8775 68.088 79.1603 68.2383 79.3984 68.4463C79.6365 68.6542 79.8236 68.9142 79.945 69.2061C80.8681 71.1452 82.3207 72.7837 84.1351 73.9326C86.2803 75.1731 88.7727 77.3891 91.4308 76.5229C93.5398 75.8329 97.678 69.9978 99.3087 67.5965C99.3921 68.7204 99.5886 69.833 99.8954 70.9175C100.458 72.7786 98.5555 78.299 98.5555 79.7414C98.5555 81.1273 97.2185 95.9574 98.5668 101.275C99.8668 106.409 98.5555 108.211 98.5555 110.476V124.555C98.5104 126.774 98.3531 128.989 98.084 131.192C96.8878 131.181 96.0209 131.264 95.5004 131.955C95.1203 132.425 94.8748 132.989 94.7902 133.588C94.7055 134.186 94.7849 134.797 95.0199 135.354C95.352 136.469 97.6757 139.421 98.6594 140.642C100.428 142.831 104.233 144.322 106.141 142.902C107.325 142.02 108.044 139.079 108.035 137.559C108.034 137.512 108.025 137.465 108.007 137.421C108.08 136.942 108.258 136.485 108.527 136.082C109.628 134.712 108.82 133.973 108.113 131.722C107.442 129.582 107.976 122.306 108.322 119.312C108.571 116.148 108.479 112.967 108.051 109.822C107.712 106.562 108.979 100.695 109.426 96.9516C110.805 99.8696 114.179 107.171 114.618 109.681C115.249 113.296 116.526 118.512 117.84 121.406C119.19 124.376 120.352 129.465 119.969 131.348C119.293 131.365 118.618 131.431 117.952 131.546C117.684 131.589 117.426 131.68 117.19 131.814C116.998 132.066 116.863 132.355 116.793 132.663C116.723 132.972 116.72 133.291 116.784 133.601C116.981 134.855 118.553 135.27 119.491 135.519C120.178 135.735 120.768 136.182 121.163 136.785C121.344 136.994 121.485 137.235 121.579 137.496C122.389 139.207 123.18 140.262 125.081 140.262C125.496 140.296 125.914 140.234 126.301 140.079C126.688 139.925 127.034 139.682 127.311 139.37C127.344 139.325 127.366 139.272 127.375 139.216C127.807 136.571 127.908 137.317 127.978 135.814C128.387 135.516 128.741 135.149 129.025 134.729C129.069 134.665 129.092 134.588 129.091 134.51C129.01 132.783 128.562 131.093 127.777 129.553C126.48 126.651 125.77 123.521 125.688 120.343C125.652 116.809 125.112 113.297 124.083 109.914C122.929 105.975 121.284 105.208 121.196 100.114C121.106 94.9119 121.882 91.4019 120.976 88.1186C120.081 84.873 116.112 80.3191 116.512 77.023C116.912 73.7269 116.141 69.5443 117.952 66.252L119.267 69.4155C119.239 69.5032 119.244 69.5982 119.281 69.6824C119.318 69.7667 119.385 69.8344 119.469 69.8727C130.76 75.033 130.046 74.7189 130.172 74.7189C130.226 74.7189 130.278 74.7076 130.327 74.6857C130.375 74.6639 130.419 74.6321 130.454 74.5923C130.489 74.5525 130.516 74.5057 130.531 74.455C130.547 74.4042 130.552 74.3507 130.546 74.2979ZM106.862 33.6498C109.269 33.4161 111.671 34.1321 113.557 35.6451C114.336 36.2328 114.853 37.1021 114.999 38.0667C115.076 39.3983 114.958 40.734 114.649 42.0316C103.05 38.9992 104.251 39.1694 101.873 38.1013C102.123 37.1176 103.209 33.9293 106.862 33.6498ZM104.199 48.4129C104.194 48.3633 104.18 48.3152 104.156 48.2712C104.133 48.2273 104.101 48.1884 104.063 48.1568C104.024 48.1252 103.98 48.1015 103.932 48.0872C103.885 48.0728 103.835 48.0681 103.785 48.0732C103.529 48.1352 103.262 48.1395 103.004 48.0857C102.746 48.0319 102.504 47.9214 102.294 47.7621C102.16 47.5733 102.069 47.3584 102.024 47.1317C101.98 46.9049 101.984 46.6713 102.036 46.4462C102.067 46.1502 102.076 46.0071 101.697 45.6094C101.632 45.5357 101.562 45.4669 101.487 45.4038C101.617 45.3025 101.77 45.235 101.933 45.2072C102.117 45.1679 102.298 45.1135 102.474 45.0445C102.552 45.0123 102.617 44.9545 102.659 44.8806C102.7 44.8068 102.716 44.721 102.703 44.6373C102.689 44.5536 102.648 44.4768 102.586 44.4193C102.524 44.3619 102.444 44.3271 102.359 44.3206C101.97 44.3004 101.595 44.1698 101.277 43.944C101.324 43.857 101.38 43.7753 101.445 43.7C101.483 43.6568 101.51 43.6055 101.525 43.5501C101.54 43.4946 101.542 43.4365 101.532 43.38C101.521 43.3236 101.497 43.2705 101.462 43.2246C101.428 43.1788 101.383 43.1414 101.332 43.1155C101.075 42.9925 100.843 42.8221 100.649 42.6131C100.805 42.3555 101.553 41.8019 101.865 41.3371C102.107 40.9466 102.222 40.4911 102.197 40.0326C102.657 40.0107 103.176 39.9783 103.762 39.9331C103.856 40.9432 104.205 43.4876 105.369 44.295C106.725 45.2313 107.344 44.0352 107.905 43.5418C107.98 43.4748 108.06 43.4055 108.143 43.3384C108.537 43.0176 109.092 43.4318 109.17 44.0322C109.238 44.5391 108.122 45.6455 106.961 45.2252C106.882 45.1974 106.797 45.1963 106.717 45.2222C106.638 45.2481 106.57 45.2995 106.523 45.3684C106.476 45.4372 106.454 45.5197 106.459 45.6028C106.464 45.686 106.496 45.7651 106.551 45.8278C106.731 46.1016 107.012 46.293 107.333 46.3599C107.654 46.4268 107.988 46.3639 108.262 46.1848C108.762 46.6565 109.415 46.9324 110.102 46.9622C110.095 47.6716 110.171 48.3794 110.328 49.0712C109.514 48.6969 108.613 48.5548 107.723 48.6607C106.564 48.7679 105.462 49.2131 104.553 49.9411C104.375 49.4471 104.256 48.9336 104.199 48.4114V48.4129ZM107.755 49.4184C109.18 49.3581 109.598 49.3777 111.471 50.6311C108.896 50.2684 106.271 50.5654 103.842 51.4943C104.948 50.5181 106.32 49.4726 107.755 49.4169V49.4184ZM78.3045 67.0143C77.4511 66.6136 76.6358 66.1364 75.8686 65.5884C75.1781 65.0085 74.7132 64.2045 74.555 63.3167L75.2939 63.6218L76.1277 65.077C76.178 65.1628 76.2602 65.2252 76.3563 65.2506C76.4525 65.2761 76.5548 65.2624 76.6409 65.2127C76.727 65.163 76.79 65.0812 76.816 64.9852C76.8421 64.8892 76.8291 64.7869 76.78 64.7004C76.3264 63.9291 75.9284 63.1264 75.5892 62.2984C76.7816 63.2113 77.9138 64.2003 78.9786 65.2593C78.6574 65.8017 78.4302 66.3946 78.3068 67.0128L78.3045 67.0143ZM79.9013 67.8933C79.6421 67.663 79.3429 67.482 79.0185 67.3593C79.1121 66.7084 79.3432 66.085 79.6964 65.5304L80.8089 66.0208C80.346 66.5528 80.0335 67.1987 79.9036 67.8918L79.9013 67.8933ZM100.615 70.7005C100.249 69.35 100.043 67.961 100.002 66.5624C100.342 66.0652 100.696 65.5282 101.046 64.9844C101.439 67.2579 101.716 69.5502 101.874 71.8522C101.838 73.7595 101.603 75.6579 101.173 77.5164C100.542 77.3996 100.067 77.2972 99.8028 77.2377C100.196 75.5859 101.071 72.2017 100.616 70.699L100.615 70.7005ZM115.73 77.4795C115.731 77.9357 115.783 78.3905 115.885 78.8353C111.928 81.406 105.172 80.5089 101.574 79.7685C101.631 79.3166 101.702 78.8533 101.781 78.3939C106.047 79.1177 111.861 79.4521 115.731 77.4802L115.73 77.4795ZM99.6258 77.9698C99.9037 78.0338 100.392 78.1415 101.037 78.2628C100.962 78.7147 100.89 79.1622 100.833 79.6111C100.141 79.4552 99.6281 79.3203 99.3592 79.2473C99.4187 78.9038 99.5136 78.4594 99.6273 77.9706L99.6258 77.9698ZM99.2989 80.0133C99.6137 80.0992 100.112 80.2287 100.749 80.3733C100.51 82.9576 100.448 97.0111 100.951 100.546C101.455 104.099 102.17 106.091 101.19 108.123C100.588 109.379 99.8405 113.359 99.3072 116.592V110.475C99.3072 108.332 100.641 106.402 99.2951 101.088C98.0704 96.2511 99.1663 83.0939 99.3004 80.014L99.2989 80.0133ZM104.667 142.003C102.529 142.055 100.428 140.478 99.6145 139.469C98.1487 137.655 96.3516 135.251 96.1113 134.44C95.8213 133.465 95.8175 132.783 96.1007 132.406C96.4563 131.934 97.3059 131.936 97.9951 131.943C97.7902 133.675 97.6064 134.938 97.6019 134.966C97.588 135.062 97.6118 135.16 97.6682 135.239C99.3192 137.56 103.021 141.724 105.56 140.361C106.133 140.07 106.653 139.684 107.096 139.219C106.778 140.635 106.018 141.974 104.669 142.007L104.667 142.003ZM125.356 139.004C124.001 139.145 123.242 137.498 122.481 136.497C121.67 135.399 120.53 134.588 119.226 134.183C118.287 133.895 117.15 133.071 117.812 132.338C118.449 132.201 119.097 132.122 119.748 132.103C119.761 132.161 119.786 132.214 119.823 132.259C120.746 133.334 121.742 134.343 122.804 135.279C123.373 135.83 124.085 136.211 124.859 136.38C125.633 136.549 126.439 136.499 127.187 136.236C127.074 137.307 126.678 138.867 125.358 139.008L125.356 139.004ZM118.318 84.2562C120.537 88.2316 120.86 88.9125 120.563 95.0445C120.491 96.5381 120.409 98.2313 120.441 100.123C120.533 105.395 122.249 106.332 123.36 110.122C124.365 113.423 124.896 116.852 124.935 120.303C125.007 123.615 125.746 126.879 127.108 129.899C127.815 131.299 128.231 132.827 128.333 134.392C127.035 136.165 124.886 136.108 123.305 134.714C122.334 133.854 121.418 132.935 120.562 131.961C121.504 129.631 119.432 123.088 118.524 121.085C117.237 118.252 115.981 113.116 115.36 109.542C114.833 106.523 110.435 97.2906 109.636 95.6327C110.05 94.3504 110.558 93.1002 111.155 91.8923L111.325 91.6038C112.205 90.123 114.267 86.6567 113.186 82.4417C113.175 82.3921 113.155 82.3453 113.125 82.3039C113.096 82.2625 113.059 82.2274 113.016 82.2007C112.973 82.1741 112.925 82.1564 112.875 82.1488C112.825 82.1411 112.773 82.1437 112.724 82.1562C112.675 82.1688 112.629 82.1912 112.589 82.222C112.549 82.2527 112.515 82.2913 112.49 82.3354C112.465 82.3795 112.449 82.4282 112.444 82.4786C112.438 82.5289 112.442 82.5799 112.457 82.6285C113.459 86.5407 111.509 89.8187 110.676 91.2189L110.501 91.5157C109.736 92.9798 109.15 94.5311 108.756 96.1359C108.403 99.8598 106.924 106.271 107.302 109.896C107.714 112.988 107.805 116.115 107.574 119.226C107.336 121.277 106.61 129.447 107.395 131.947C108.148 134.344 108.732 134.624 107.941 135.61C106.877 136.935 107.857 138.278 105.206 139.7C103.212 140.765 99.6815 136.727 98.3709 134.926C98.8867 131.491 99.1998 128.028 99.3087 124.556C99.3087 120.338 99.2959 121.665 99.3569 121.236C99.372 121.129 100.869 110.527 101.87 108.452C102.969 106.175 102.206 104.008 101.699 100.443C101.195 96.8906 101.281 82.9538 101.492 80.536C105.963 81.464 112.171 81.992 116.09 79.6005C116.68 81.2227 117.426 82.7833 118.32 84.2599L118.318 84.2562ZM120.034 69.3041L118.425 65.4265C119.285 63.4416 119.873 61.3492 120.172 59.2064C120.177 59.1096 120.145 59.0144 120.082 58.9407C120.019 58.867 119.93 58.8204 119.834 58.8107C119.737 58.801 119.641 58.8289 119.564 58.8886C119.488 58.9483 119.437 59.0351 119.423 59.1311C119.118 61.2369 118.534 63.2926 117.684 65.2435C115.357 68.7083 116.119 73.2276 115.801 76.5846C114.535 77.2758 113.154 77.7309 111.725 77.9276C111.744 76.4897 111.894 70.278 113.062 65.7338C114.435 60.401 111.794 55.3093 111.68 55.0946C111.658 55.0498 111.627 55.0099 111.589 54.9773C111.55 54.9447 111.506 54.9201 111.458 54.9048C111.411 54.8895 111.36 54.8839 111.31 54.8883C111.261 54.8927 111.212 54.907 111.168 54.9304C111.123 54.9538 111.084 54.9859 111.052 55.0246C111.021 55.0634 110.997 55.1081 110.983 55.1562C110.968 55.2042 110.964 55.2547 110.969 55.3045C110.975 55.3543 110.99 55.4026 111.014 55.4464C111.041 55.4969 113.63 60.5012 112.333 65.5455C111.111 70.2998 110.984 76.8136 110.97 78.0316C107.947 78.3076 104.901 78.1769 101.913 77.6429C102.352 75.7322 102.591 73.7809 102.625 71.8206C102.437 69.2079 102.112 66.607 101.65 64.0285C102.916 62.0069 103.985 60.1457 104.003 60.1186C104.053 60.032 104.067 59.9291 104.041 59.8326C104.015 59.736 103.952 59.6537 103.865 59.6038C103.779 59.5538 103.676 59.5403 103.579 59.5663C103.483 59.5922 103.4 59.6554 103.35 59.742C103.329 59.7804 101.091 63.5887 99.3125 66.2317C97.678 68.6616 93.112 75.1769 91.1958 75.8028C88.9361 76.544 86.4972 74.4259 84.511 73.2773C82.8358 72.2053 81.4923 70.6878 80.6312 68.8951C80.5747 68.7684 80.5097 68.6456 80.4369 68.5275C80.4853 68.496 80.526 68.454 80.5558 68.4045C80.5857 68.3551 80.604 68.2995 80.6093 68.242C80.6982 67.5206 81.029 66.8507 81.5478 66.3417L88.5008 69.4057C88.5823 69.4416 88.6738 69.4474 88.7591 69.4221C88.8445 69.3969 88.9181 69.3423 88.967 69.2679L97.0664 56.9521C98.2195 55.1993 100.49 54.1109 101.846 53.186C102.175 53.0052 108.687 49.5186 114.103 52.2753H114.112C116.784 53.662 118.699 53.7321 120.029 55.0622C121.666 56.6997 122.703 61.1113 124.578 64.2432C126.311 67.1378 128.975 70.7962 129.669 73.693L120.034 69.3041Z" fill="black"/>
<path fill-rule="evenodd" clip-rule="evenodd" d="M120.195 82.9539C120.195 82.9539 119.295 84.2773 119.903 84.7751C120.078 84.9196 120.285 85.0187 120.507 85.0636C120.729 85.1086 120.959 85.098 121.175 85.0327C121.175 85.0327 121.796 86.668 122.612 85.7679C122.55 86.6808 123.4 86.8894 123.742 86.2748C123.742 86.2748 124.62 87.3873 125.074 86.802C125.074 86.802 125.995 87.8287 126.348 86.6092C126.744 84.8618 125.638 84.7684 125.293 85.319C125.293 85.319 124.841 84.2087 124.112 84.9054C124.112 84.9054 123.565 83.7907 122.85 84.5198C122.85 84.5198 123.083 82.99 122.283 83.0247C121.484 83.0593 121.362 83.4276 121.362 83.4276L120.195 82.9539Z" fill="#FFD997"/>
<path d="M126.163 84.7127C126.039 84.6633 125.906 84.641 125.773 84.6471C125.64 84.6532 125.51 84.6876 125.392 84.7481C125.271 84.5582 125.087 84.4172 124.873 84.3502C124.658 84.2832 124.427 84.2944 124.22 84.382C124.113 84.2278 123.969 84.103 123.802 84.019C123.634 83.935 123.448 83.8946 123.261 83.9015C123.228 83.2145 122.953 82.6345 122.271 82.6496C121.904 82.637 121.544 82.7526 121.253 82.9765L120.337 82.6059C120.257 82.5738 120.169 82.5699 120.087 82.5948C120.004 82.6198 119.933 82.672 119.885 82.743C119.773 82.9072 118.816 84.3707 119.666 85.0667C119.844 85.2139 120.05 85.3243 120.271 85.3914C120.492 85.4585 120.725 85.481 120.955 85.4576C121.241 86.018 121.723 86.549 122.33 86.3871C122.379 86.5219 122.459 86.6436 122.562 86.7426C122.666 86.8417 122.791 86.9156 122.928 86.9583C123.065 87.0011 123.21 87.0117 123.351 86.9893C123.493 86.967 123.627 86.9121 123.744 86.8292C123.895 87.0235 124.098 87.1702 124.33 87.252C124.562 87.3337 124.813 87.347 125.052 87.2902C125.724 87.8076 126.439 87.6668 126.719 86.6944C127.047 85.2475 126.439 84.8264 126.163 84.7127ZM120.142 84.4867C119.97 84.3459 120.127 83.8435 120.351 83.4277L121.057 83.7132C121.059 84.0539 121 84.3923 120.884 84.7127C120.752 84.726 120.618 84.7126 120.49 84.6733C120.363 84.634 120.244 84.5695 120.142 84.4837V84.4867ZM122.101 85.6632C121.944 85.6339 121.719 85.3213 121.579 85.0192C121.766 84.543 121.84 84.0299 121.794 83.5203C121.954 83.4425 122.129 83.4033 122.306 83.4058C122.32 83.4016 122.335 83.4016 122.348 83.4061C122.362 83.4106 122.373 83.4192 122.382 83.4307C122.519 83.7528 122.555 84.1089 122.486 84.4521L122.265 85.5902C122.211 85.6354 122.15 85.6775 122.098 85.6602L122.101 85.6632ZM122.99 85.8139L123.203 84.7127C123.225 84.6914 123.251 84.675 123.279 84.6644C123.308 84.6539 123.338 84.6496 123.368 84.6517C123.483 84.669 123.627 84.8264 123.721 84.971C123.648 85.3551 123.545 85.7329 123.413 86.1008C123.252 86.3705 122.965 86.2688 122.987 85.8146L122.99 85.8139ZM124.18 86.1995C124.293 85.8418 124.386 85.4785 124.461 85.1111C124.502 85.0743 124.556 85.0544 124.611 85.0554C124.72 85.078 124.858 85.2663 124.931 85.4124C124.917 85.8126 124.858 86.2098 124.754 86.5965C124.646 86.6085 124.401 86.4368 124.178 86.2003L124.18 86.1995ZM125.992 86.5061C125.92 86.7539 125.841 86.8232 125.813 86.8285C125.698 86.8156 125.591 86.7653 125.508 86.6853C125.607 86.281 125.665 85.8677 125.681 85.4516C125.707 85.4282 125.739 85.412 125.774 85.4045C125.808 85.397 125.844 85.3984 125.878 85.4086C125.991 85.4561 126.158 85.7506 125.99 86.5068L125.992 86.5061Z" fill="black"/>
</svg>
