<svg width="40" height="41" viewBox="0 0 40 41" fill="none" xmlns="http://www.w3.org/2000/svg">
<path fill-rule="evenodd" clip-rule="evenodd" d="M22.3561 0.665273C20.8104 0.485273 19.2491 0.485273 17.7035 0.665273L16.997 4.13007C15.5469 4.39727 14.1385 4.85492 12.8083 5.49113L10.2007 3.10419C8.84338 3.86619 7.5795 4.78377 6.43461 5.83837L7.89886 9.05611C6.88288 10.1248 6.01242 11.323 5.31006 12.6196L1.79781 12.2204C1.14936 13.6345 0.667585 15.1193 0.362183 16.6448L3.43832 18.3839C3.24399 19.8455 3.24399 21.3264 3.43832 22.788L0.362183 24.5332C0.668028 26.0591 1.15058 27.5441 1.80007 28.9583L5.31232 28.5599C6.01469 29.8562 6.88515 31.0541 7.90112 32.1226L6.43687 35.3403C7.58172 36.3952 8.84561 37.313 10.203 38.0753L12.8106 35.6883C14.1408 36.3243 15.5492 36.7817 16.9992 37.0486L17.7057 40.5134C19.2514 40.6934 20.8127 40.6934 22.3584 40.5134L23.0649 37.0486C24.5149 36.7817 25.9233 36.3243 27.2535 35.6883L29.8611 38.0753C31.2185 37.313 32.4824 36.3952 33.6272 35.3403L32.163 32.1226C33.1789 31.0543 34.0492 29.8564 34.751 28.5599L38.264 28.9583C38.9135 27.5441 39.3961 26.0591 39.7019 24.5332L36.6258 22.791C36.8194 21.3294 36.8194 19.8486 36.6258 18.3869L39.7019 16.6448C39.3958 15.1189 38.9133 13.6339 38.264 12.2196L34.751 12.6188C34.0492 11.3221 33.179 10.1239 32.163 9.05535L33.6272 5.83761C32.4823 4.78302 31.2185 3.86544 29.8611 3.10344L27.252 5.49038C25.9218 4.85416 24.5134 4.39652 23.0634 4.12932L22.3561 0.665273ZM20.0294 15.1105C21.1131 15.1103 22.1724 15.4315 23.0735 16.0334C23.9746 16.6354 24.677 17.491 25.0918 18.4921C25.5066 19.4933 25.6152 20.5949 25.4039 21.6578C25.1926 22.7206 24.6708 23.6969 23.9046 24.4632C23.1384 25.2296 22.1621 25.7514 21.0993 25.9629C20.0365 26.1744 18.9348 26.0659 17.9337 25.6513C16.9325 25.2366 16.0767 24.5344 15.4747 23.6333C14.8726 22.7323 14.5513 21.673 14.5513 20.5894C14.5519 19.1366 15.1292 17.7435 16.1564 16.7161C17.1836 15.6888 18.5766 15.1113 20.0294 15.1105Z" fill="#1D4ED8"/>
</svg>
