<svg width="78" height="61" viewBox="0 0 78 61" fill="none" xmlns="http://www.w3.org/2000/svg">
<path fill-rule="evenodd" clip-rule="evenodd" d="M66.7425 0.457231C65.8034 0.347264 64.8547 0.347264 63.9157 0.457231L63.4863 2.56172C62.6052 2.72477 61.7495 3.00335 60.9412 3.39025L59.3595 1.93956C58.5353 2.40319 57.7677 2.96077 57.0719 3.60116L57.9622 5.55952C57.3447 6.20878 56.8159 6.93693 56.3895 7.72501L54.2519 7.48173C53.8573 8.34112 53.5641 9.24352 53.3782 10.1707L55.2469 11.2252C55.1294 12.1134 55.1294 13.0132 55.2469 13.9014L53.3782 14.9604C53.5641 15.8876 53.8573 16.79 54.2519 17.6494L56.3865 17.4069C56.8127 18.1948 57.3416 18.9228 57.9592 19.5716L57.0689 21.53C57.7647 22.1706 58.5323 22.7284 59.3564 23.1923L60.9382 21.7416C61.7465 22.1285 62.6022 22.4071 63.4833 22.5702L63.9127 24.6746C64.8517 24.7846 65.8004 24.7846 66.7395 24.6746L67.1688 22.5702C68.0499 22.4071 68.9057 22.1285 69.7139 21.7416L71.2957 23.1923C72.1197 22.7286 72.8871 22.1707 73.5824 21.53L72.6929 19.5716C73.3106 18.9228 73.8394 18.1948 74.2656 17.4069L76.4002 17.6494C76.7948 16.79 77.088 15.8876 77.274 14.9604L75.4105 13.9014C75.5288 13.0132 75.5288 12.1134 75.4105 11.2252L77.28 10.1669C77.094 9.23975 76.8008 8.33736 76.4063 7.47796L74.2716 7.72049C73.8453 6.93242 73.3164 6.20426 72.6989 5.555L73.5885 3.59664C72.8931 2.95609 72.1257 2.39849 71.3017 1.93504L69.72 3.38574C68.9117 2.99883 68.056 2.72025 67.1748 2.5572L66.7425 0.457231ZM65.3287 9.23446C65.9872 9.23431 66.6309 9.42944 67.1785 9.79517C67.7261 10.1609 68.1529 10.6808 68.405 11.2891C68.6571 11.8974 68.7232 12.5669 68.5948 13.2127C68.4664 13.8586 68.1494 14.4518 67.6838 14.9175C67.2183 15.3832 66.6251 15.7003 65.9792 15.8289C65.3334 15.9574 64.664 15.8915 64.0556 15.6395C63.4472 15.3876 62.9272 14.9609 62.5614 14.4134C62.1955 13.8659 62.0002 13.2222 62.0002 12.5637C62.0004 11.6809 62.3512 10.8343 62.9753 10.2101C63.5994 9.58577 64.4459 9.23486 65.3287 9.23446Z" fill="#8B5CF6"/>
<path d="M77.4657 14.6372L75.8147 13.701C75.8975 12.9473 75.8975 12.1868 75.8147 11.4331L77.4657 10.4983C77.5347 10.4593 77.5896 10.3994 77.6226 10.3274C77.6556 10.2553 77.665 10.1746 77.6495 10.0969C77.4569 9.14095 77.1536 8.21073 76.7457 7.32503C76.7136 7.25218 76.6589 7.19164 76.5897 7.15241C76.5205 7.11318 76.4405 7.09738 76.3615 7.10735L74.4785 7.32201C74.1014 6.66381 73.6541 6.04836 73.1445 5.48642L73.9309 3.7593C73.9636 3.6872 73.9728 3.60661 73.9571 3.529C73.9414 3.45138 73.9017 3.38068 73.8435 3.32695C73.1268 2.66625 72.3356 2.09119 71.4859 1.61339C71.4168 1.57445 71.3371 1.55836 71.2582 1.56742C71.1793 1.57649 71.1054 1.61023 71.0468 1.66385L69.6481 2.94432C68.9562 2.63425 68.233 2.3994 67.4909 2.24383L67.1143 0.384892C67.0989 0.306706 67.0591 0.235417 67.0006 0.181279C66.9422 0.12714 66.868 0.0929426 66.7889 0.0836053C65.8207 -0.0278684 64.8429 -0.0278684 63.8747 0.0836053C63.7954 0.0927929 63.7211 0.126923 63.6625 0.181074C63.6039 0.235224 63.564 0.306595 63.5486 0.384892L63.1719 2.24383C62.4301 2.39928 61.7071 2.63413 61.0155 2.94432L59.616 1.66385C59.5575 1.61023 59.4835 1.57649 59.4046 1.56742C59.3258 1.55836 59.2461 1.57445 59.1769 1.61339C58.3271 2.09094 57.5359 2.66602 56.8193 3.32695C56.761 3.38059 56.7211 3.45125 56.7053 3.52887C56.6895 3.60649 56.6985 3.68712 56.7312 3.7593L57.5176 5.48718C57.0085 6.04912 56.5615 6.66428 56.1844 7.32201L54.3013 7.10735C54.2223 7.09757 54.1422 7.11346 54.0729 7.15265C54.0036 7.19184 53.9488 7.25227 53.9164 7.32503C53.5085 8.21048 53.2052 9.14045 53.0126 10.0961C52.9969 10.174 53.0062 10.2548 53.0392 10.327C53.0722 10.3993 53.1272 10.4592 53.1964 10.4983L54.8466 11.4338C54.7653 12.1874 54.7653 12.9475 54.8466 13.701L53.1911 14.6372C53.1221 14.6763 53.0672 14.7361 53.0342 14.8082C53.0012 14.8803 52.9918 14.961 53.0073 15.0387C53.1999 15.9944 53.5033 16.9243 53.9112 17.8098C53.9442 17.882 53.9992 17.942 54.0683 17.9811C54.1374 18.0202 54.2171 18.0364 54.296 18.0275L56.1791 17.8128C56.5563 18.4705 57.0032 19.0857 57.5123 19.6476L56.7259 21.3748C56.6933 21.4469 56.6842 21.5276 56.7 21.6052C56.7159 21.6828 56.7557 21.7535 56.814 21.8071C57.5301 22.4686 58.3214 23.0438 59.1716 23.5207C59.2407 23.5597 59.3204 23.5759 59.3992 23.567C59.4781 23.5581 59.5521 23.5245 59.6107 23.471L61.0102 22.1905C61.7018 22.5007 62.4248 22.7355 63.1667 22.891L63.5433 24.7492C63.5587 24.8274 63.5985 24.8987 63.6569 24.9528C63.7154 25.0069 63.7895 25.0411 63.8687 25.0505C64.8373 25.1634 65.8157 25.1634 66.7844 25.0505C66.8634 25.041 66.9373 25.0067 66.9957 24.9526C67.054 24.8985 67.0937 24.8273 67.109 24.7492L67.4856 22.891C68.228 22.7355 68.9515 22.5007 69.6436 22.1905L71.0423 23.471C71.1009 23.5245 71.1749 23.5581 71.2538 23.567C71.3327 23.5759 71.4123 23.5597 71.4814 23.5207C72.3313 23.0432 73.1225 22.4682 73.839 21.8071C73.8972 21.7534 73.9369 21.6827 73.9526 21.6051C73.9683 21.5275 73.9591 21.4469 73.9264 21.3748L73.14 19.6476C73.6497 19.0861 74.097 18.4709 74.4739 17.8128L76.357 18.0275C76.4358 18.0362 76.5153 18.0199 76.5843 17.9808C76.6533 17.9417 76.7082 17.8819 76.7411 17.8098C77.149 16.9241 77.4524 15.9939 77.645 15.038C77.6608 14.9608 77.6519 14.8807 77.6198 14.8088C77.5876 14.7369 77.5337 14.6769 77.4657 14.6372ZM76.1755 17.2471L74.315 17.0362C74.2399 17.0272 74.1638 17.0409 74.0966 17.0757C74.0295 17.1105 73.9743 17.1647 73.9384 17.2313C73.5278 17.9901 73.0182 18.6909 72.4229 19.3155C72.3711 19.3699 72.3368 19.4385 72.3243 19.5126C72.3118 19.5867 72.3218 19.6629 72.3529 19.7312L73.1295 21.4358C72.5774 21.921 71.9816 22.3539 71.3496 22.7291L69.969 21.4644C69.9136 21.4138 69.8444 21.3809 69.7701 21.3699C69.6959 21.3589 69.6201 21.3703 69.5524 21.4026C68.7738 21.7744 67.9498 22.0423 67.1015 22.1995C67.0276 22.213 66.9595 22.2482 66.9058 22.3007C66.8521 22.3532 66.8153 22.4205 66.8002 22.494L66.4236 24.3281C65.6921 24.3974 64.9557 24.3974 64.2242 24.3281L63.8476 22.494C63.8326 22.4204 63.7958 22.3529 63.7422 22.3003C63.6885 22.2477 63.6202 22.2123 63.5463 22.1988C62.6978 22.0426 61.8736 21.7749 61.0953 21.4026C61.0276 21.3701 60.9516 21.3586 60.8772 21.3696C60.8029 21.3806 60.7335 21.4136 60.678 21.4644L59.2974 22.7291C58.6653 22.3542 58.0694 21.9212 57.5176 21.4358L58.2934 19.7312C58.3245 19.6629 58.3345 19.5867 58.322 19.5126C58.3095 19.4385 58.2751 19.3699 58.2233 19.3155C57.6288 18.6905 57.1195 17.9897 56.7086 17.2313C56.6735 17.164 56.6185 17.1092 56.5511 17.0743C56.4837 17.0394 56.4072 17.0261 56.332 17.0362L54.4723 17.2471C54.1815 16.5726 53.9546 15.8723 53.7944 15.1555L55.4236 14.232C55.4889 14.1951 55.5418 14.1396 55.5753 14.0725C55.6089 14.0054 55.6216 13.9298 55.6119 13.8554C55.4982 13.0003 55.4982 12.1338 55.6119 11.2787C55.6216 11.2043 55.6089 11.1287 55.5753 11.0616C55.5418 10.9945 55.4889 10.9389 55.4236 10.9021L53.8042 9.97484C53.9645 9.25825 54.1914 8.55822 54.4821 7.88391L56.3418 8.09481C56.417 8.10464 56.4934 8.0912 56.5607 8.05633C56.628 8.02146 56.683 7.96681 56.7184 7.89973C57.1293 7.14133 57.6386 6.44055 58.2331 5.81558C58.2849 5.76117 58.3193 5.69251 58.3318 5.61841C58.3443 5.54432 58.3343 5.46819 58.3032 5.39981L57.5273 3.69452C58.079 3.20911 58.6749 2.77638 59.3072 2.402L60.6878 3.66665C60.7433 3.71742 60.8127 3.75043 60.887 3.76144C60.9614 3.77245 61.0373 3.76095 61.1051 3.72842C61.8834 3.35613 62.7076 3.08843 63.5561 2.93227C63.63 2.91875 63.6983 2.8834 63.7519 2.83078C63.8056 2.77816 63.8424 2.71067 63.8574 2.63701L64.234 0.802173C64.9655 0.734382 65.7018 0.734382 66.4334 0.802173L66.81 2.63701C66.8251 2.71054 66.8619 2.77786 66.9156 2.83033C66.9693 2.88281 67.0374 2.91805 67.1113 2.93152C67.9596 3.08874 68.7836 3.35667 69.5622 3.72842C69.6299 3.76078 69.7057 3.77219 69.7799 3.76119C69.8541 3.75018 69.9234 3.71727 69.9788 3.66665L71.3594 2.402C71.9913 2.77701 72.5871 3.20969 73.1393 3.69452L72.3627 5.39981C72.3316 5.46819 72.3216 5.54432 72.3341 5.61841C72.3466 5.69251 72.3809 5.76117 72.4327 5.81558C73.0279 6.44013 73.5376 7.14097 73.9482 7.89973C73.9841 7.96631 74.0393 8.02053 74.1064 8.05533C74.1736 8.09013 74.2497 8.10388 74.3248 8.09481L76.1853 7.88391C76.4755 8.55837 76.7025 9.25836 76.8632 9.97484L75.2347 10.8975C75.1694 10.9344 75.1166 10.99 75.083 11.0571C75.0495 11.1242 75.0367 11.1997 75.0464 11.2741C75.1601 12.1288 75.1601 12.9947 75.0464 13.8494C75.0367 13.9238 75.0495 13.9994 75.083 14.0665C75.1166 14.1336 75.1694 14.1891 75.2347 14.226L76.8632 15.1502C76.6994 15.8678 76.4692 16.5685 76.1755 17.2434V17.2471Z" fill="black"/>
<path fill-rule="evenodd" clip-rule="evenodd" d="M22.3703 20.5132C20.8246 20.3332 19.2633 20.3332 17.7176 20.5132L17.0111 23.978C15.5611 24.2452 14.1526 24.7028 12.8225 25.339L10.2149 22.9521C8.85755 23.7141 7.59366 24.6317 6.44877 25.6863L7.91302 28.904C6.89704 29.9727 6.02658 31.1709 5.32422 32.4675L1.81197 32.0683C1.16352 33.4824 0.681745 34.9672 0.376343 36.4927L3.45248 38.2318C3.25815 39.6934 3.25815 41.1743 3.45248 42.6359L0.376343 44.3811C0.682188 45.907 1.16474 47.392 1.81423 48.8062L5.32648 48.4078C6.02885 49.7041 6.89931 50.902 7.91528 51.9705L6.45103 55.1882C7.59588 56.2431 8.85977 57.1609 10.2171 57.9232L12.8247 55.5362C14.1549 56.1722 15.5633 56.6296 17.0134 56.8965L17.7199 60.3613C19.2655 60.5413 20.8269 60.5413 22.3725 60.3613L23.079 56.8965C24.5291 56.6296 25.9375 56.1722 27.2677 55.5362L29.8753 57.9232C31.2327 57.1609 32.4965 56.2431 33.6414 55.1882L32.1771 51.9705C33.1931 50.9022 34.0633 49.7043 34.7652 48.4078L38.2782 48.8062C38.9277 47.392 39.4102 45.907 39.7161 44.3811L36.6399 42.6389C36.8335 41.1773 36.8335 39.6965 36.6399 38.2348L39.7161 36.4927C39.41 34.9668 38.9275 33.4818 38.2782 32.0675L34.7652 32.4667C34.0633 31.17 33.1931 29.9718 32.1771 28.9033L33.6414 25.6855C32.4965 24.6309 31.2326 23.7133 29.8753 22.9513L27.2662 25.3383C25.936 24.7021 24.5276 24.2444 23.0775 23.9772L22.3703 20.5132ZM20.0436 34.9584C21.1272 34.9582 22.1866 35.2794 23.0877 35.8814C23.9888 36.4833 24.6911 37.3389 25.1059 38.34C25.5207 39.3412 25.6294 40.4428 25.418 41.5057C25.2067 42.5685 24.685 43.5448 23.9188 44.3112C23.1525 45.0775 22.1763 45.5993 21.1135 45.8108C20.0507 46.0223 18.949 45.9138 17.9478 45.4992C16.9466 45.0845 16.0909 44.3823 15.4888 43.4812C14.8868 42.5802 14.5654 41.5209 14.5654 40.4373C14.566 38.9845 15.1434 37.5914 16.1706 36.564C17.1978 35.5367 18.5908 34.9592 20.0436 34.9584Z" fill="#1D4ED8"/>
<path d="M17.6741 60.7358C17.5948 60.7266 17.5205 60.6925 17.4619 60.6383C17.4033 60.5842 17.3634 60.5128 17.348 60.4345L16.6927 57.2183C15.3817 56.9557 14.1059 56.5409 12.8912 55.9823L10.4696 58.2012C10.4111 58.2549 10.3371 58.2886 10.2582 58.2977C10.1794 58.3067 10.0996 58.2907 10.0305 58.2517C8.64858 57.4745 7.36173 56.5392 6.19585 55.4648C6.13755 55.4112 6.09766 55.3405 6.08184 55.2629C6.06602 55.1853 6.07507 55.1046 6.10772 55.0325L7.46803 52.0445C6.56165 51.0618 5.77321 49.9766 5.11875 48.8109L1.85732 49.1815C1.77841 49.1912 1.69846 49.1754 1.62919 49.1363C1.55993 49.0973 1.50499 49.0371 1.47243 48.9646C0.810745 47.5236 0.319099 46.0105 0.00742359 44.4558C-0.00809705 44.3781 0.00131243 44.2974 0.0343119 44.2253C0.0673113 44.1532 0.122217 44.0934 0.191208 44.0543L3.0474 42.4357C2.89149 41.108 2.89149 39.7667 3.0474 38.4391L0.191208 36.8204C0.122075 36.7813 0.0670735 36.7214 0.0340651 36.6492C0.00105676 36.5769 -0.008268 36.4961 0.00742359 36.4182C0.319215 34.8638 0.810858 33.351 1.47243 31.9102C1.50556 31.8381 1.56061 31.7784 1.62972 31.7394C1.69884 31.7004 1.77849 31.6843 1.85732 31.6933L5.11875 32.0639C5.77302 30.8981 6.56148 29.8128 7.46803 28.8303L6.10772 25.8416C6.07507 25.7694 6.06602 25.6888 6.08184 25.6111C6.09766 25.5335 6.13755 25.4629 6.19585 25.4092C7.36151 24.3345 8.64839 23.3993 10.0305 22.6223C10.0996 22.5833 10.1792 22.5671 10.2581 22.576C10.337 22.5849 10.411 22.6185 10.4696 22.672L12.8912 24.8903C14.1058 24.3313 15.3816 23.9165 16.6927 23.6542L17.348 20.438C17.3634 20.3597 17.4033 20.2883 17.4619 20.2342C17.5205 20.18 17.5948 20.1459 17.6741 20.1367C19.2488 19.9544 20.8394 19.9544 22.4141 20.1367C22.4932 20.146 22.5674 20.1802 22.6258 20.2344C22.6843 20.2885 22.7241 20.3598 22.7395 20.438L23.3955 23.6542C24.7064 23.9164 25.982 24.3312 27.1963 24.8903L29.6179 22.672C29.6765 22.6185 29.7505 22.5849 29.8294 22.576C29.9082 22.5671 29.9879 22.5833 30.057 22.6223C31.4393 23.3992 32.7264 24.3345 33.8924 25.4092C33.9505 25.463 33.9903 25.5336 34.006 25.6113C34.0216 25.6889 34.0125 25.7695 33.9797 25.8416L32.6239 28.8303C33.5305 29.8128 34.3189 30.8981 34.9732 32.0639L38.2354 31.6933C38.3143 31.6844 38.394 31.7006 38.4632 31.7397C38.5323 31.7788 38.5873 31.8388 38.6203 31.911C39.2812 33.3517 39.7726 34.8642 40.0845 36.4182C40.1002 36.4961 40.0909 36.5769 40.0579 36.6492C40.0249 36.7214 39.9699 36.7813 39.9008 36.8204L37.0446 38.4391C37.2005 39.7667 37.2005 41.108 37.0446 42.4357L39.9008 44.0543C39.9698 44.0934 40.0247 44.1532 40.0577 44.2253C40.0907 44.2974 40.1001 44.3781 40.0845 44.4558C39.7727 46.0101 39.2813 47.5229 38.6203 48.9638C38.588 49.0366 38.5331 49.097 38.4638 49.1362C38.3945 49.1754 38.3144 49.1913 38.2354 49.1815L34.9732 48.8109C34.3188 49.9766 33.5303 51.0618 32.6239 52.0445L33.9797 55.0325C34.0125 55.1046 34.0216 55.1852 34.006 55.2628C33.9903 55.3404 33.9505 55.4111 33.8924 55.4648C32.7262 56.5393 31.4391 57.4745 30.057 58.2517C29.9878 58.2907 29.9081 58.3067 29.8292 58.2977C29.7504 58.2886 29.6764 58.2549 29.6179 58.2012L27.1963 55.9838C25.9819 56.5425 24.7063 56.9573 23.3955 57.2198L22.7395 60.436C22.7241 60.5142 22.6843 60.5855 22.6258 60.6397C22.5674 60.6938 22.4932 60.728 22.4141 60.7373C20.8393 60.9199 19.2487 60.9194 17.6741 60.7358ZM18.0311 60.0165C19.3694 60.1528 20.7181 60.1528 22.0563 60.0165L22.7071 56.8221C22.7222 56.7486 22.759 56.6813 22.8127 56.6288C22.8664 56.5763 22.9345 56.5411 23.0084 56.5276C24.4255 56.2655 25.802 55.8177 27.1021 55.1959C27.1699 55.1634 27.2458 55.1519 27.3202 55.1629C27.3946 55.1739 27.4639 55.2069 27.5194 55.2577L29.9244 57.4601C31.0879 56.7849 32.179 55.9922 33.1806 55.0942L31.8301 52.1266C31.7989 52.0582 31.789 51.982 31.8014 51.9079C31.8139 51.8339 31.8483 51.7652 31.9001 51.7108C32.8931 50.6665 33.7438 49.4957 34.4302 48.2287C34.4661 48.1621 34.5212 48.1079 34.5884 48.0731C34.6556 48.0383 34.7317 48.0245 34.8068 48.0336L38.0456 48.4019C38.5886 47.1714 39.005 45.8889 39.2884 44.5741L36.4518 42.9667C36.3865 42.9298 36.3336 42.8743 36.3001 42.8072C36.2665 42.7401 36.2538 42.6645 36.2635 42.5901C36.4533 41.1612 36.4533 39.7135 36.2635 38.2847C36.2538 38.2103 36.2665 38.1347 36.3001 38.0676C36.3336 38.0005 36.3865 37.945 36.4518 37.9081L39.2884 36.3007C39.005 34.9859 38.5886 33.7034 38.0456 32.4729L34.8068 32.8405C34.7317 32.8496 34.6557 32.8359 34.5885 32.8013C34.5214 32.7666 34.4662 32.7126 34.4302 32.6461C33.744 31.379 32.8933 30.2081 31.9001 29.164C31.8483 29.1096 31.8139 29.0409 31.8014 28.9668C31.789 28.8927 31.7989 28.8166 31.8301 28.7482L33.1806 25.7798C32.1789 24.8821 31.0878 24.0896 29.9244 23.4147L27.5194 25.6171C27.4639 25.6679 27.3946 25.7009 27.3202 25.7119C27.2458 25.7229 27.1699 25.7114 27.1021 25.6789C25.8021 25.0567 24.4256 24.609 23.0084 24.3472C22.9344 24.3337 22.8662 24.2983 22.8125 24.2457C22.7588 24.1931 22.7221 24.1256 22.7071 24.0519L22.0563 20.8575C20.7181 20.7212 19.3694 20.7212 18.0311 20.8575L17.3804 24.0519C17.3653 24.1256 17.3286 24.1931 17.2749 24.2457C17.2212 24.2983 17.153 24.3337 17.0791 24.3472C15.6616 24.6091 14.2849 25.0568 12.9846 25.6789C12.9169 25.7112 12.8411 25.7227 12.7669 25.7116C12.6927 25.7006 12.6234 25.6677 12.5681 25.6171L10.163 23.4147C8.99947 24.0894 7.90835 24.8819 6.90688 25.7798L8.2574 28.7482C8.28853 28.8166 8.2985 28.8927 8.28601 28.9668C8.27353 29.0409 8.23917 29.1096 8.18735 29.164C7.19419 30.2081 6.34346 31.379 5.6573 32.6461C5.622 32.7132 5.56695 32.7678 5.49959 32.8026C5.43223 32.8373 5.35581 32.8506 5.28069 32.8405L2.04186 32.4729C1.49736 33.703 1.08041 34.9856 0.797547 36.3007L3.63793 37.9081C3.70325 37.945 3.75608 38.0005 3.78963 38.0676C3.82317 38.1347 3.83592 38.2103 3.82623 38.2847C3.63639 39.7135 3.63639 41.1612 3.82623 42.5901C3.83592 42.6645 3.82317 42.7401 3.78963 42.8072C3.75608 42.8743 3.70325 42.9298 3.63793 42.9667L0.80056 44.5741C1.08352 45.8887 1.50047 47.1708 2.04487 48.4004L5.2837 48.0321C5.35894 48.0217 5.43554 48.0349 5.50298 48.0698C5.57042 48.1048 5.62538 48.1597 5.66031 48.2272C6.34559 49.4959 7.19554 50.6685 8.1881 51.7145C8.23992 51.769 8.27428 51.8376 8.28677 51.9117C8.29925 51.9858 8.28928 52.0619 8.25815 52.1303L6.90764 55.098C7.90908 55.9961 9.0002 56.7889 10.1638 57.4638L12.5688 55.2614C12.6242 55.2108 12.6934 55.1779 12.7676 55.1669C12.8418 55.1559 12.9177 55.1673 12.9853 55.1997C14.2858 55.8214 15.6625 56.2691 17.0798 56.5314C17.1537 56.5448 17.2218 56.5801 17.2755 56.6325C17.3292 56.685 17.366 56.7523 17.3811 56.8259L18.0311 60.0165ZM20.0437 46.2929C18.8856 46.2929 17.7535 45.9495 16.7906 45.3061C15.8277 44.6627 15.0771 43.7482 14.6339 42.6782C14.1908 41.6082 14.0748 40.4309 14.3007 39.295C14.5267 38.1592 15.0844 37.1158 15.9033 36.2969C16.7222 35.478 17.7655 34.9203 18.9014 34.6944C20.0372 34.4685 21.2146 34.5844 22.2845 35.0276C23.3545 35.4708 24.269 36.2213 24.9124 37.1843C25.5558 38.1472 25.8992 39.2793 25.8992 40.4374C25.897 41.9896 25.2794 43.4775 24.1817 44.5749C23.084 45.6723 21.5959 46.2896 20.0437 46.2914V46.2929ZM20.0437 35.3351C19.0346 35.3351 18.0481 35.6343 17.209 36.195C16.37 36.7556 15.716 37.5525 15.3298 38.4848C14.9436 39.4172 14.8426 40.4431 15.0395 41.4328C15.2364 42.4225 15.7223 43.3317 16.4359 44.0453C17.1494 44.7588 18.0586 45.2448 19.0483 45.4416C20.0381 45.6385 21.064 45.5375 21.9963 45.1513C22.9286 44.7651 23.7255 44.1111 24.2861 43.2721C24.8468 42.433 25.146 41.4465 25.146 40.4374C25.1446 39.0846 24.6066 37.7876 23.65 36.8311C22.6935 35.8745 21.3965 35.3365 20.0437 35.3351Z" fill="black"/>
</svg>
