<svg width="78" height="61" viewBox="0 0 78 61" fill="none" xmlns="http://www.w3.org/2000/svg">
<path fill-rule="evenodd" clip-rule="evenodd" d="M10.9143 0.457231C11.8533 0.347264 12.802 0.347264 13.7411 0.457231L14.1704 2.56172C15.0515 2.72477 15.9073 3.00335 16.7155 3.39025L18.2973 1.93956C19.1214 2.40319 19.889 2.96077 20.5848 3.60116L19.6945 5.55952C20.312 6.20878 20.8408 6.93693 21.2672 7.72501L23.4048 7.48173C23.7994 8.34112 24.0926 9.24352 24.2786 10.1707L22.4098 11.2252C22.5273 12.1134 22.5273 13.0132 22.4098 13.9014L24.2786 14.9604C24.0926 15.8876 23.7994 16.79 23.4048 17.6494L21.2702 17.4069C20.844 18.1948 20.3152 18.9228 19.6975 19.5716L20.5878 21.53C19.8921 22.1706 19.1245 22.7284 18.3003 23.1923L16.7185 21.7416C15.9103 22.1285 15.0545 22.4071 14.1734 22.5702L13.7441 24.6746C12.805 24.7846 11.8563 24.7846 10.9173 24.6746L10.4879 22.5702C9.60681 22.4071 8.75106 22.1285 7.94281 21.7416L6.36106 23.1923C5.53701 22.7286 4.76962 22.1707 4.0743 21.53L4.96384 19.5716C4.34617 18.9228 3.81731 18.1948 3.39112 17.4069L1.25651 17.6494C0.861933 16.79 0.56872 15.8876 0.382782 14.9604L2.24624 13.9014C2.12798 13.0132 2.12798 12.1134 2.24624 11.2252L0.376759 10.1669C0.562696 9.23975 0.855909 8.33736 1.25049 7.47796L3.3851 7.72049C3.81147 6.93242 4.3403 6.20426 4.95782 5.555L4.06827 3.59664C4.76361 2.95609 5.53101 2.39849 6.35503 1.93504L7.93679 3.38574C8.74503 2.99883 9.60078 2.72025 10.4819 2.5572L10.9143 0.457231ZM12.328 9.23446C11.6695 9.23431 11.0258 9.42944 10.4782 9.79517C9.93063 10.1609 9.5038 10.6808 9.25171 11.2891C8.99961 11.8974 8.93357 12.5669 9.06194 13.2127C9.19032 13.8586 9.50733 14.4518 9.9729 14.9175C10.4385 15.3832 11.0317 15.7003 11.6775 15.8289C12.3233 15.9574 12.9928 15.8915 13.6011 15.6395C14.2095 15.3876 14.7295 14.9609 15.0954 14.4134C15.4612 13.8659 15.6565 13.2222 15.6565 12.5637C15.6563 11.6809 15.3056 10.8343 14.6814 10.2101C14.0573 9.58577 13.2108 9.23486 12.328 9.23446Z" fill="#8B5CF6"/>
<path d="M0.191015 14.6372L1.84206 13.701C1.75921 12.9473 1.75921 12.1868 1.84206 11.4331L0.191015 10.4983C0.122025 10.4593 0.0671215 10.3994 0.0341225 10.3274C0.00112152 10.2553 -0.00829315 10.1746 0.00722694 10.0969C0.199846 9.14095 0.503174 8.21073 0.911083 7.32503C0.943094 7.25218 0.997793 7.19164 1.06702 7.15241C1.13624 7.11318 1.21629 7.09738 1.29523 7.10735L3.17827 7.32201C3.55538 6.66381 4.00264 6.04836 4.51221 5.48642L3.72585 3.7593C3.69311 3.6872 3.68394 3.60661 3.69963 3.529C3.71531 3.45138 3.75506 3.38068 3.81323 3.32695C4.52995 2.66625 5.32113 2.09119 6.17079 1.61339C6.23997 1.57445 6.31968 1.55836 6.39854 1.56742C6.4774 1.57649 6.55138 1.61023 6.60992 1.66385L8.00864 2.94432C8.70055 2.63425 9.42377 2.3994 10.1659 2.24383L10.5425 0.384892C10.5578 0.306706 10.5976 0.235417 10.6561 0.181279C10.7146 0.12714 10.7887 0.0929426 10.8678 0.0836053C11.836 -0.0278684 12.8138 -0.0278684 13.782 0.0836053C13.8613 0.0927929 13.9356 0.126923 13.9942 0.181074C14.0529 0.235224 14.0928 0.306595 14.1082 0.384892L14.4848 2.24383C15.2267 2.39928 15.9496 2.63413 16.6413 2.94432L18.0407 1.66385C18.0993 1.61023 18.1732 1.57649 18.2521 1.56742C18.331 1.55836 18.4107 1.57445 18.4799 1.61339C19.3297 2.09094 20.1209 2.66602 20.8374 3.32695C20.8957 3.38059 20.9356 3.45125 20.9514 3.52887C20.9673 3.60649 20.9582 3.68712 20.9255 3.7593L20.1392 5.48718C20.6482 6.04912 21.0952 6.66428 21.4724 7.32201L23.3554 7.10735C23.4344 7.09757 23.5145 7.11346 23.5838 7.15265C23.6531 7.19184 23.708 7.25227 23.7403 7.32503C24.1482 8.21048 24.4515 9.14045 24.6442 10.0961C24.6599 10.174 24.6505 10.2548 24.6175 10.327C24.5845 10.3993 24.5295 10.4592 24.4604 10.4983L22.8101 11.4338C22.8914 12.1874 22.8914 12.9475 22.8101 13.701L24.4657 14.6372C24.5347 14.6763 24.5896 14.7361 24.6226 14.8082C24.6556 14.8803 24.665 14.961 24.6495 15.0387C24.4568 15.9944 24.1535 16.9243 23.7456 17.8098C23.7126 17.882 23.6576 17.942 23.5885 17.9811C23.5193 18.0202 23.4396 18.0364 23.3607 18.0275L21.4777 17.8128C21.1005 18.4705 20.6535 19.0857 20.1445 19.6476L20.9308 21.3748C20.9635 21.4469 20.9725 21.5276 20.9567 21.6052C20.9409 21.6828 20.901 21.7535 20.8427 21.8071C20.1266 22.4686 19.3354 23.0438 18.4851 23.5207C18.416 23.5597 18.3364 23.5759 18.2575 23.567C18.1786 23.5581 18.1046 23.5245 18.046 23.471L16.6465 22.1905C15.9549 22.5007 15.2319 22.7355 14.4901 22.891L14.1135 24.7492C14.0981 24.8274 14.0583 24.8987 13.9998 24.9528C13.9413 25.0069 13.8672 25.0411 13.7881 25.0505C12.8195 25.1634 11.841 25.1634 10.8724 25.0505C10.7934 25.041 10.7194 25.0067 10.6611 24.9526C10.6028 24.8985 10.5631 24.8273 10.5477 24.7492L10.1711 22.891C9.42877 22.7355 8.70529 22.5007 8.01316 22.1905L6.61444 23.471C6.55582 23.5245 6.48179 23.5581 6.40293 23.567C6.32407 23.5759 6.24441 23.5597 6.17532 23.5207C5.32541 23.0432 4.53419 22.4682 3.81775 21.8071C3.75958 21.7534 3.71983 21.6827 3.70414 21.6051C3.68846 21.5275 3.69764 21.4469 3.73038 21.3748L4.51673 19.6476C4.00699 19.0861 3.55972 18.4709 3.18279 17.8128L1.29975 18.0275C1.22095 18.0362 1.14141 18.0199 1.07243 17.9808C1.00346 17.9417 0.948576 17.8819 0.915606 17.8098C0.507696 16.9241 0.204363 15.9939 0.0117435 15.038C-0.00401688 14.9608 0.00480461 14.8807 0.0369606 14.8088C0.0691166 14.7369 0.122993 14.6769 0.191015 14.6372ZM1.48127 17.2471L3.34171 17.0362C3.41682 17.0272 3.49292 17.0409 3.56009 17.0757C3.62727 17.1105 3.68241 17.1647 3.71832 17.2313C4.12897 17.9901 4.63858 18.6909 5.2338 19.3155C5.28562 19.3699 5.31997 19.4385 5.33246 19.5126C5.34494 19.5867 5.33497 19.6629 5.30384 19.7312L4.52728 21.4358C5.07931 21.921 5.67514 22.3539 6.30713 22.7291L7.68777 21.4644C7.74315 21.4138 7.81239 21.3809 7.8866 21.3699C7.96081 21.3589 8.03662 21.3703 8.1043 21.4026C8.88289 21.7744 9.70692 22.0423 10.5553 22.1995C10.6291 22.213 10.6973 22.2482 10.7509 22.3007C10.8046 22.3532 10.8414 22.4205 10.8566 22.494L11.2332 24.3281C11.9647 24.3974 12.7011 24.3974 13.4326 24.3281L13.8092 22.494C13.8242 22.4204 13.8609 22.3529 13.9146 22.3003C13.9683 22.2477 14.0365 22.2123 14.1104 22.1988C14.959 22.0426 15.7831 21.7749 16.5614 21.4026C16.6292 21.3701 16.7051 21.3586 16.7795 21.3696C16.8539 21.3806 16.9232 21.4136 16.9787 21.4644L18.3593 22.7291C18.9915 22.3542 19.5873 21.9212 20.1392 21.4358L19.3634 19.7312C19.3322 19.6629 19.3223 19.5867 19.3348 19.5126C19.3472 19.4385 19.3816 19.3699 19.4334 19.3155C20.0279 18.6905 20.5372 17.9897 20.9481 17.2313C20.9832 17.164 21.0382 17.1092 21.1056 17.0743C21.173 17.0394 21.2495 17.0261 21.3248 17.0362L23.1844 17.2471C23.4752 16.5726 23.7022 15.8723 23.8623 15.1555L22.2331 14.232C22.1678 14.1951 22.115 14.1396 22.0814 14.0725C22.0479 14.0054 22.0351 13.9298 22.0448 13.8554C22.1586 13.0003 22.1586 12.1338 22.0448 11.2787C22.0351 11.2043 22.0479 11.1287 22.0814 11.0616C22.115 10.9945 22.1678 10.9389 22.2331 10.9021L23.8525 9.97484C23.6923 9.25825 23.4653 8.55822 23.1747 7.88391L21.315 8.09481C21.2398 8.10464 21.1634 8.0912 21.0961 8.05633C21.0287 8.02146 20.9737 7.96681 20.9384 7.89973C20.5274 7.14133 20.0181 6.44055 19.4236 5.81558C19.3718 5.76117 19.3375 5.69251 19.325 5.61841C19.3125 5.54432 19.3225 5.46819 19.3536 5.39981L20.1294 3.69452C19.5777 3.20911 18.9818 2.77638 18.3495 2.402L16.9689 3.66665C16.9135 3.71742 16.8441 3.75043 16.7697 3.76144C16.6954 3.77245 16.6194 3.76095 16.5516 3.72842C15.7733 3.35613 14.9492 3.08843 14.1007 2.93227C14.0267 2.91875 13.9585 2.8834 13.9048 2.83078C13.8511 2.77816 13.8144 2.71067 13.7994 2.63701L13.4228 0.802173C12.6912 0.734382 11.9549 0.734382 11.2234 0.802173L10.8468 2.63701C10.8316 2.71054 10.7948 2.77786 10.7412 2.83033C10.6875 2.88281 10.6193 2.91805 10.5455 2.93152C9.69713 3.08874 8.8731 3.35667 8.09451 3.72842C8.02682 3.76078 7.95102 3.77219 7.8768 3.76119C7.80259 3.75018 7.73336 3.71727 7.67798 3.66665L6.29733 2.402C5.66544 2.77701 5.06962 3.20969 4.51748 3.69452L5.29405 5.39981C5.32518 5.46819 5.33515 5.54432 5.32267 5.61841C5.31018 5.69251 5.27582 5.76117 5.224 5.81558C4.62879 6.44013 4.11917 7.14097 3.70853 7.89973C3.67261 7.96631 3.61747 8.02053 3.5503 8.05533C3.48313 8.09013 3.40703 8.10388 3.33192 8.09481L1.47148 7.88391C1.1812 8.55837 0.95426 9.25836 0.793583 9.97484L2.42204 10.8975C2.48737 10.9344 2.54019 10.99 2.57374 11.0571C2.60729 11.1242 2.62003 11.1997 2.61034 11.2741C2.49661 12.1288 2.49661 12.9947 2.61034 13.8494C2.62003 13.9238 2.60729 13.9994 2.57374 14.0665C2.54019 14.1336 2.48737 14.1891 2.42204 14.226L0.793583 15.1502C0.957291 15.8678 1.18752 16.5685 1.48127 17.2434V17.2471Z" fill="black"/>
<path fill-rule="evenodd" clip-rule="evenodd" d="M55.2865 20.5132C56.8321 20.3332 58.3934 20.3332 59.9391 20.5132L60.6456 23.978C62.0957 24.2452 63.5041 24.7028 64.8343 25.339L67.4419 22.9521C68.7992 23.7141 70.0631 24.6317 71.208 25.6863L69.7437 28.904C70.7597 29.9727 71.6302 31.1709 72.3325 32.4675L75.8448 32.0683C76.4932 33.4824 76.975 34.9672 77.2804 36.4927L74.2043 38.2318C74.3986 39.6934 74.3986 41.1743 74.2043 42.6359L77.2804 44.3811C76.9746 45.907 76.492 47.392 75.8425 48.8062L72.3303 48.4078C71.6279 49.7041 70.7574 50.902 69.7415 51.9705L71.2057 55.1882C70.0609 56.2431 68.797 57.1609 67.4396 57.9232L64.832 55.5362C63.5018 56.1722 62.0934 56.6296 60.6434 56.8965L59.9368 60.3613C58.3912 60.5413 56.8299 60.5413 55.2842 60.3613L54.5777 56.8965C53.1277 56.6296 51.7193 56.1722 50.3891 55.5362L47.7814 57.9232C46.4241 57.1609 45.1602 56.2431 44.0154 55.1882L45.4796 51.9705C44.4636 50.9022 43.5934 49.7043 42.8916 48.4078L39.3786 48.8062C38.7291 47.392 38.2465 45.907 37.9407 44.3811L41.0168 42.6389C40.8232 41.1773 40.8232 39.6965 41.0168 38.2348L37.9407 36.4927C38.2467 34.9668 38.7293 33.4818 39.3786 32.0675L42.8916 32.4667C43.5934 31.17 44.4636 29.9718 45.4796 28.9033L44.0154 25.6855C45.1602 24.6309 46.4241 23.7133 47.7814 22.9513L50.3906 25.3383C51.7207 24.7021 53.1291 24.2444 54.5792 23.9772L55.2865 20.5132ZM57.6132 34.9584C56.5295 34.9582 55.4701 35.2794 54.5691 35.8814C53.668 36.4833 52.9656 37.3389 52.5508 38.34C52.136 39.3412 52.0274 40.4428 52.2387 41.5057C52.45 42.5685 52.9718 43.5448 53.738 44.3112C54.5042 45.0775 55.4804 45.5993 56.5433 45.8108C57.6061 46.0223 58.7077 45.9138 59.7089 45.4992C60.7101 45.0845 61.5658 44.3823 62.1679 43.4812C62.77 42.5802 63.0913 41.5209 63.0913 40.4373C63.0907 38.9845 62.5134 37.5914 61.4862 36.564C60.459 35.5367 59.0659 34.9592 57.6132 34.9584Z" fill="#1D4ED8"/>
<path d="M59.9826 60.7358C60.0619 60.7266 60.1362 60.6925 60.1948 60.6383C60.2534 60.5842 60.2933 60.5128 60.3088 60.4345L60.9641 57.2183C62.275 56.9557 63.5508 56.5409 64.7656 55.9823L67.1871 58.2012C67.2457 58.2549 67.3197 58.2886 67.3985 58.2977C67.4774 58.3067 67.5571 58.2907 67.6263 58.2517C69.0082 57.4745 70.295 56.5392 71.4609 55.4648C71.5192 55.4112 71.5591 55.3405 71.5749 55.2629C71.5907 55.1853 71.5817 55.1046 71.549 55.0325L70.1887 52.0445C71.0951 51.0618 71.8835 49.9766 72.538 48.8109L75.7994 49.1815C75.8783 49.1912 75.9583 49.1754 76.0275 49.1363C76.0968 49.0973 76.1517 49.0371 76.1843 48.9646C76.846 47.5236 77.3376 46.0105 77.6493 44.4558C77.6648 44.3781 77.6554 44.2974 77.6224 44.2253C77.5894 44.1532 77.5345 44.0934 77.4655 44.0543L74.6093 42.4357C74.7652 41.108 74.7652 39.7667 74.6093 38.4391L77.4655 36.8204C77.5347 36.7813 77.5897 36.7214 77.6227 36.6492C77.6557 36.5769 77.665 36.4961 77.6493 36.4182C77.3375 34.8638 76.8459 33.351 76.1843 31.9102C76.1512 31.8381 76.0961 31.7784 76.027 31.7394C75.9579 31.7004 75.8782 31.6843 75.7994 31.6933L72.538 32.0639C71.8837 30.8981 71.0953 29.8128 70.1887 28.8303L71.549 25.8416C71.5817 25.7694 71.5907 25.6888 71.5749 25.6111C71.5591 25.5335 71.5192 25.4629 71.4609 25.4092C70.2952 24.3345 69.0083 23.3993 67.6263 22.6223C67.5572 22.5833 67.4775 22.5671 67.3986 22.576C67.3198 22.5849 67.2458 22.6185 67.1871 22.672L64.7656 24.8903C63.551 24.3313 62.2751 23.9165 60.9641 23.6542L60.3088 20.438C60.2933 20.3597 60.2534 20.2883 60.1948 20.2342C60.1362 20.18 60.0619 20.1459 59.9826 20.1367C58.4079 19.9544 56.8174 19.9544 55.2426 20.1367C55.1635 20.146 55.0894 20.1802 55.0309 20.2344C54.9724 20.2885 54.9326 20.3598 54.9173 20.438L54.2612 23.6542C52.9504 23.9164 51.6747 24.3312 50.4605 24.8903L48.0389 22.672C47.9803 22.6185 47.9062 22.5849 47.8274 22.576C47.7485 22.5671 47.6689 22.5833 47.5998 22.6223C46.2174 23.3992 44.9303 24.3345 43.7644 25.4092C43.7062 25.463 43.6665 25.5336 43.6508 25.6113C43.6351 25.6889 43.6443 25.7695 43.677 25.8416L45.0328 28.8303C44.1262 29.8128 43.3378 30.8981 42.6835 32.0639L39.4213 31.6933C39.3424 31.6844 39.2627 31.7006 39.1936 31.7397C39.1245 31.7788 39.0695 31.8388 39.0364 31.911C38.3756 33.3517 37.8842 34.8642 37.5722 36.4182C37.5565 36.4961 37.5658 36.5769 37.5988 36.6492C37.6318 36.7214 37.6868 36.7813 37.756 36.8204L40.6122 38.4391C40.4563 39.7667 40.4563 41.108 40.6122 42.4357L37.756 44.0543C37.687 44.0934 37.6321 44.1532 37.5991 44.2253C37.5661 44.2974 37.5567 44.3781 37.5722 44.4558C37.8841 46.0101 38.3755 47.5229 39.0364 48.9638C39.0688 49.0366 39.1237 49.097 39.193 49.1362C39.2623 49.1754 39.3423 49.1913 39.4213 49.1815L42.6835 48.8109C43.338 49.9766 44.1264 51.0618 45.0328 52.0445L43.677 55.0325C43.6443 55.1046 43.6351 55.1852 43.6508 55.2628C43.6665 55.3404 43.7062 55.4111 43.7644 55.4648C44.9305 56.5393 46.2176 57.4745 47.5998 58.2517C47.6689 58.2907 47.7486 58.3067 47.8275 58.2977C47.9064 58.2886 47.9803 58.2549 48.0389 58.2012L50.4605 55.9838C51.6749 56.5425 52.9504 56.9573 54.2612 57.2198L54.9173 60.436C54.9326 60.5142 54.9724 60.5855 55.0309 60.6397C55.0894 60.6938 55.1635 60.728 55.2426 60.7373C56.8174 60.9199 58.408 60.9194 59.9826 60.7358ZM59.6256 60.0165C58.2873 60.1528 56.9387 60.1528 55.6004 60.0165L54.9496 56.8221C54.9345 56.7486 54.8977 56.6813 54.844 56.6288C54.7903 56.5763 54.7222 56.5411 54.6484 56.5276C53.2312 56.2655 51.8548 55.8177 50.5546 55.1959C50.4869 55.1634 50.4109 55.1519 50.3365 55.1629C50.2622 55.1739 50.1928 55.2069 50.1373 55.2577L47.7323 57.4601C46.5689 56.7849 45.4778 55.9922 44.4762 55.0942L45.8267 52.1266C45.8578 52.0582 45.8678 51.982 45.8553 51.9079C45.8428 51.8339 45.8085 51.7652 45.7566 51.7108C44.7637 50.6665 43.913 49.4957 43.2266 48.2287C43.1907 48.1621 43.1355 48.1079 43.0684 48.0731C43.0012 48.0383 42.9251 48.0245 42.85 48.0336L39.6111 48.4019C39.0681 47.1714 38.6517 45.8889 38.3683 44.5741L41.205 42.9667C41.2703 42.9298 41.3231 42.8743 41.3567 42.8072C41.3902 42.7401 41.4029 42.6645 41.3933 42.5901C41.2034 41.1612 41.2034 39.7135 41.3933 38.2847C41.4029 38.2103 41.3902 38.1347 41.3567 38.0676C41.3231 38.0005 41.2703 37.945 41.205 37.9081L38.3683 36.3007C38.6517 34.9859 39.0681 33.7034 39.6111 32.4729L42.85 32.8405C42.925 32.8496 43.001 32.8359 43.0682 32.8013C43.1354 32.7666 43.1906 32.7126 43.2266 32.6461C43.9128 31.379 44.7635 30.2081 45.7566 29.164C45.8085 29.1096 45.8428 29.0409 45.8553 28.9668C45.8678 28.8927 45.8578 28.8166 45.8267 28.7482L44.4762 25.7798C45.4778 24.8821 46.5689 24.0896 47.7323 23.4147L50.1373 25.6171C50.1928 25.6679 50.2622 25.7009 50.3365 25.7119C50.4109 25.7229 50.4869 25.7114 50.5546 25.6789C51.8546 25.0567 53.2311 24.609 54.6484 24.3472C54.7223 24.3337 54.7905 24.2983 54.8442 24.2457C54.8979 24.1931 54.9346 24.1256 54.9496 24.0519L55.6004 20.8575C56.9387 20.7212 58.2873 20.7212 59.6256 20.8575L60.2764 24.0519C60.2914 24.1256 60.3281 24.1931 60.3818 24.2457C60.4355 24.2983 60.5037 24.3337 60.5777 24.3472C61.9951 24.6091 63.3718 25.0568 64.6722 25.6789C64.7398 25.7112 64.8156 25.7227 64.8899 25.7116C64.9641 25.7006 65.0333 25.6677 65.0887 25.6171L67.4937 23.4147C68.6573 24.0894 69.7484 24.8819 70.7499 25.7798L69.3993 28.7482C69.3682 28.8166 69.3582 28.8927 69.3707 28.9668C69.3832 29.0409 69.4176 29.1096 69.4694 29.164C70.4625 30.2081 71.3133 31.379 71.9994 32.6461C72.0347 32.7132 72.0898 32.7678 72.1571 32.8026C72.2245 32.8373 72.3009 32.8506 72.376 32.8405L75.6149 32.4729C76.1594 33.703 76.5763 34.9856 76.8592 36.3007L74.0188 37.9081C73.9535 37.945 73.9007 38.0005 73.8671 38.0676C73.8336 38.1347 73.8208 38.2103 73.8305 38.2847C74.0203 39.7135 74.0203 41.1612 73.8305 42.5901C73.8208 42.6645 73.8336 42.7401 73.8671 42.8072C73.9007 42.8743 73.9535 42.9298 74.0188 42.9667L76.8562 44.5741C76.5732 45.8887 76.1563 47.1708 75.6119 48.4004L72.373 48.0321C72.2978 48.0217 72.2212 48.0349 72.1538 48.0698C72.0863 48.1047 72.0314 48.1597 71.9964 48.2272C71.3112 49.4959 70.4612 50.6685 69.4686 51.7145C69.4168 51.769 69.3825 51.8376 69.37 51.9117C69.3575 51.9858 69.3675 52.0619 69.3986 52.1303L70.7491 55.098C69.7477 55.9961 68.6565 56.7889 67.4929 57.4638L65.0879 55.2614C65.0325 55.2108 64.9633 55.1779 64.8891 55.1669C64.8149 55.1559 64.7391 55.1673 64.6714 55.1997C63.3709 55.8214 61.9943 56.2691 60.5769 56.5314C60.5031 56.5448 60.4349 56.5801 60.3812 56.6325C60.3276 56.685 60.2908 56.7523 60.2756 56.8259L59.6256 60.0165ZM57.613 46.2929C58.7711 46.2929 59.9032 45.9495 60.8662 45.3061C61.8291 44.6627 62.5796 43.7482 63.0228 42.6782C63.466 41.6082 63.5819 40.4309 63.356 39.295C63.1301 38.1592 62.5724 37.1158 61.7535 36.2969C60.9346 35.478 59.8912 34.9203 58.7554 34.6944C57.6195 34.4685 56.4422 34.5844 55.3722 35.0276C54.3023 35.4708 53.3878 36.2213 52.7443 37.1843C52.1009 38.1472 51.7575 39.2793 51.7575 40.4374C51.7597 41.9896 52.3774 43.4775 53.4751 44.5749C54.5727 45.6723 56.0608 46.2896 57.613 46.2914V46.2929ZM57.613 35.3351C58.6221 35.3351 59.6086 35.6343 60.4477 36.195C61.2868 36.7556 61.9407 37.5525 62.3269 38.4848C62.7131 39.4172 62.8141 40.4431 62.6173 41.4328C62.4204 42.4225 61.9344 43.3317 61.2209 44.0453C60.5073 44.7588 59.5982 45.2448 58.6084 45.4416C57.6187 45.6385 56.5928 45.5375 55.6605 45.1513C54.7281 44.7651 53.9313 44.1111 53.3706 43.2721C52.81 42.433 52.5107 41.4465 52.5107 40.4374C52.5121 39.0846 53.0501 37.7876 54.0067 36.8311C54.9633 35.8745 56.2602 35.3365 57.613 35.3351Z" fill="black"/>
</svg>
